<svg width="233" height="83" viewBox="0 0 233 83" fill="none" xmlns="http://www.w3.org/2000/svg">
<g clip-path="url(#clip0)">
<rect width="233" height="83" fill="white"/>
<rect x="5" y="5" width="33" height="33" fill="#E3DB90"/>
<rect x="5" y="44" width="33" height="33" fill="#8EDEC1"/>
<rect x="43" y="44" width="33" height="33" fill="#C4C4C4"/>
<path d="M52.4688 17.6484H48.2656V20.5469H52.3203V22.2578H48.2656V28H46.4453V15.9375H52.4688V17.6484ZM55.8516 20.3906V24.7578C55.8516 26.0182 56.349 26.6484 57.3438 26.6484C58.3385 26.6484 58.8359 26.0182 58.8359 24.7578V20.3906H60.5938V24.7969C60.5938 25.4062 60.5182 25.9323 60.3672 26.375C60.2214 26.7708 59.9688 27.1276 59.6094 27.4453C59.0156 27.9609 58.2604 28.2188 57.3438 28.2188C56.4323 28.2188 55.6797 27.9609 55.0859 27.4453C54.7214 27.1276 54.4635 26.7708 54.3125 26.375C54.1667 26.0208 54.0938 25.4948 54.0938 24.7969V20.3906H55.8516ZM62.8125 20.3906H64.5781V21.0938C65.1927 20.4844 65.8854 20.1797 66.6562 20.1797C67.5417 20.1797 68.2318 20.4583 68.7266 21.0156C69.1536 21.4896 69.3672 22.263 69.3672 23.3359V28H67.6016V23.75C67.6016 23 67.4974 22.4818 67.2891 22.1953C67.0859 21.9036 66.7161 21.7578 66.1797 21.7578C65.5964 21.7578 65.1823 21.9505 64.9375 22.3359C64.6979 22.7161 64.5781 23.3802 64.5781 24.3281V28H62.8125V20.3906ZM77.5156 20.7188V23.0547C77.1146 22.5651 76.7552 22.2292 76.4375 22.0469C76.125 21.8594 75.7578 21.7656 75.3359 21.7656C74.6745 21.7656 74.125 21.9974 73.6875 22.4609C73.25 22.9245 73.0312 23.5052 73.0312 24.2031C73.0312 24.9167 73.2422 25.5026 73.6641 25.9609C74.0911 26.4193 74.6354 26.6484 75.2969 26.6484C75.7188 26.6484 76.0911 26.5573 76.4141 26.375C76.7266 26.1979 77.0938 25.8542 77.5156 25.3438V27.6641C76.8021 28.0339 76.0885 28.2188 75.375 28.2188C74.1979 28.2188 73.2135 27.8385 72.4219 27.0781C71.6302 26.3125 71.2344 25.362 71.2344 24.2266C71.2344 23.0911 71.6354 22.1328 72.4375 21.3516C73.2396 20.5703 74.224 20.1797 75.3906 20.1797C76.1406 20.1797 76.849 20.3594 77.5156 20.7188ZM81.0312 22.0312V28H79.2734V22.0312H78.5234V20.3906H79.2734V17.6016H81.0312V20.3906H82.3984V22.0312H81.0312ZM85.3516 20.3906V28H83.5938V20.3906H85.3516ZM83.3281 17.2266C83.3281 16.9193 83.4401 16.6536 83.6641 16.4297C83.888 16.2057 84.1562 16.0938 84.4688 16.0938C84.7865 16.0938 85.0573 16.2057 85.2812 16.4297C85.5052 16.6484 85.6172 16.9167 85.6172 17.2344C85.6172 17.5521 85.5052 17.8229 85.2812 18.0469C85.0625 18.2708 84.7943 18.3828 84.4766 18.3828C84.1589 18.3828 83.888 18.2708 83.6641 18.0469C83.4401 17.8229 83.3281 17.5495 83.3281 17.2266ZM87.2188 24.1406C87.2188 23.0417 87.612 22.1068 88.3984 21.3359C89.1849 20.5651 90.1432 20.1797 91.2734 20.1797C92.4089 20.1797 93.3724 20.5677 94.1641 21.3438C94.9453 22.1198 95.3359 23.0729 95.3359 24.2031C95.3359 25.3438 94.9427 26.2995 94.1562 27.0703C93.3646 27.8359 92.3932 28.2188 91.2422 28.2188C90.1016 28.2188 89.1458 27.8281 88.375 27.0469C87.6042 26.276 87.2188 25.3073 87.2188 24.1406ZM89.0156 24.1719C89.0156 24.9323 89.2188 25.5339 89.625 25.9766C90.0417 26.4245 90.5911 26.6484 91.2734 26.6484C91.9609 26.6484 92.5104 26.4271 92.9219 25.9844C93.3333 25.5417 93.5391 24.9505 93.5391 24.2109C93.5391 23.4714 93.3333 22.8802 92.9219 22.4375C92.5052 21.9896 91.9557 21.7656 91.2734 21.7656C90.6016 21.7656 90.0573 21.9896 89.6406 22.4375C89.224 22.8854 89.0156 23.4635 89.0156 24.1719ZM97.2031 20.3906H98.9688V21.0938C99.5833 20.4844 100.276 20.1797 101.047 20.1797C101.932 20.1797 102.622 20.4583 103.117 21.0156C103.544 21.4896 103.758 22.263 103.758 23.3359V28H101.992V23.75C101.992 23 101.888 22.4818 101.68 22.1953C101.477 21.9036 101.107 21.7578 100.57 21.7578C99.987 21.7578 99.5729 21.9505 99.3281 22.3359C99.0885 22.7161 98.9688 23.3802 98.9688 24.3281V28H97.2031V20.3906ZM110.406 21.6875L108.953 22.4609C108.724 21.9922 108.44 21.7578 108.102 21.7578C107.94 21.7578 107.802 21.8125 107.688 21.9219C107.573 22.026 107.516 22.1615 107.516 22.3281C107.516 22.6198 107.854 22.9089 108.531 23.1953C109.464 23.5964 110.091 23.9661 110.414 24.3047C110.737 24.6432 110.898 25.099 110.898 25.6719C110.898 26.4062 110.628 27.0208 110.086 27.5156C109.56 27.9844 108.924 28.2188 108.18 28.2188C106.904 28.2188 106 27.5964 105.469 26.3516L106.969 25.6562C107.177 26.0208 107.336 26.2526 107.445 26.3516C107.659 26.5495 107.914 26.6484 108.211 26.6484C108.805 26.6484 109.102 26.3776 109.102 25.8359C109.102 25.5234 108.872 25.2318 108.414 24.9609C108.237 24.8724 108.06 24.7865 107.883 24.7031C107.706 24.6198 107.526 24.5339 107.344 24.4453C106.833 24.1953 106.474 23.9453 106.266 23.6953C106 23.3776 105.867 22.9688 105.867 22.4688C105.867 21.8073 106.094 21.2604 106.547 20.8281C107.01 20.3958 107.573 20.1797 108.234 20.1797C109.208 20.1797 109.932 20.6823 110.406 21.6875ZM119.82 26.5859L116.398 20.3906H118.438L120.766 24.7656L122.938 20.3906H124.922L118.859 32.1406H116.852L119.82 26.5859ZM125.453 24.1406C125.453 23.0417 125.846 22.1068 126.633 21.3359C127.419 20.5651 128.378 20.1797 129.508 20.1797C130.643 20.1797 131.607 20.5677 132.398 21.3438C133.18 22.1198 133.57 23.0729 133.57 24.2031C133.57 25.3438 133.177 26.2995 132.391 27.0703C131.599 27.8359 130.628 28.2188 129.477 28.2188C128.336 28.2188 127.38 27.8281 126.609 27.0469C125.839 26.276 125.453 25.3073 125.453 24.1406ZM127.25 24.1719C127.25 24.9323 127.453 25.5339 127.859 25.9766C128.276 26.4245 128.826 26.6484 129.508 26.6484C130.195 26.6484 130.745 26.4271 131.156 25.9844C131.568 25.5417 131.773 24.9505 131.773 24.2109C131.773 23.4714 131.568 22.8802 131.156 22.4375C130.74 21.9896 130.19 21.7656 129.508 21.7656C128.836 21.7656 128.292 21.9896 127.875 22.4375C127.458 22.8854 127.25 23.4635 127.25 24.1719ZM137.195 20.3906V24.7578C137.195 26.0182 137.693 26.6484 138.688 26.6484C139.682 26.6484 140.18 26.0182 140.18 24.7578V20.3906H141.938V24.7969C141.938 25.4062 141.862 25.9323 141.711 26.375C141.565 26.7708 141.312 27.1276 140.953 27.4453C140.359 27.9609 139.604 28.2188 138.688 28.2188C137.776 28.2188 137.023 27.9609 136.43 27.4453C136.065 27.1276 135.807 26.7708 135.656 26.375C135.51 26.0208 135.438 25.4948 135.438 24.7969V20.3906H137.195ZM150.047 20.3906L152.039 24.7344L154.188 19.6953L156.352 24.7344L158.32 20.3906H160.289L156.305 28.5703L154.188 23.6719L152.047 28.5703L148.07 20.3906H150.047ZM161.484 20.3906H163.242V21.0703C163.565 20.7318 163.852 20.5 164.102 20.375C164.357 20.2448 164.659 20.1797 165.008 20.1797C165.471 20.1797 165.956 20.3307 166.461 20.6328L165.656 22.2422C165.323 22.0026 164.997 21.8828 164.68 21.8828C163.721 21.8828 163.242 22.6068 163.242 24.0547V28H161.484V20.3906ZM169.477 20.3906V28H167.719V20.3906H169.477ZM167.453 17.2266C167.453 16.9193 167.565 16.6536 167.789 16.4297C168.013 16.2057 168.281 16.0938 168.594 16.0938C168.911 16.0938 169.182 16.2057 169.406 16.4297C169.63 16.6484 169.742 16.9167 169.742 17.2344C169.742 17.5521 169.63 17.8229 169.406 18.0469C169.188 18.2708 168.919 18.3828 168.602 18.3828C168.284 18.3828 168.013 18.2708 167.789 18.0469C167.565 17.8229 167.453 17.5495 167.453 17.2266ZM173.516 22.0312V28H171.758V22.0312H171.008V20.3906H171.758V17.6016H173.516V20.3906H174.883V22.0312H173.516ZM183.148 24.6094H177.695C177.742 25.2344 177.945 25.7318 178.305 26.1016C178.664 26.4661 179.125 26.6484 179.688 26.6484C180.125 26.6484 180.487 26.5443 180.773 26.3359C181.055 26.1276 181.375 25.7422 181.734 25.1797L183.219 26.0078C182.99 26.3984 182.747 26.7344 182.492 27.0156C182.237 27.2917 181.964 27.5208 181.672 27.7031C181.38 27.8802 181.065 28.0104 180.727 28.0938C180.388 28.1771 180.021 28.2188 179.625 28.2188C178.49 28.2188 177.578 27.8542 176.891 27.125C176.203 26.3906 175.859 25.4167 175.859 24.2031C175.859 23 176.193 22.026 176.859 21.2812C177.531 20.5469 178.422 20.1797 179.531 20.1797C180.651 20.1797 181.536 20.5365 182.188 21.25C182.833 21.9583 183.156 22.9401 183.156 24.1953L183.148 24.6094ZM181.344 23.1719C181.099 22.2344 180.508 21.7656 179.57 21.7656C179.357 21.7656 179.156 21.7995 178.969 21.8672C178.781 21.9297 178.609 22.0234 178.453 22.1484C178.302 22.2682 178.172 22.4141 178.062 22.5859C177.953 22.7578 177.87 22.9531 177.812 23.1719H181.344Z" fill="#677083"/>
<path d="M85.8438 61.9141C85.8438 60.2161 86.4661 58.7578 87.7109 57.5391C88.9505 56.3203 90.4401 55.7109 92.1797 55.7109C93.8984 55.7109 95.3724 56.3255 96.6016 57.5547C97.8359 58.7839 98.4531 60.2604 98.4531 61.9844C98.4531 63.7188 97.8333 65.1901 96.5938 66.3984C95.349 67.612 93.8464 68.2188 92.0859 68.2188C90.5286 68.2188 89.1302 67.6797 87.8906 66.6016C86.526 65.4089 85.8438 63.8464 85.8438 61.9141ZM87.6797 61.9375C87.6797 63.2708 88.1276 64.3672 89.0234 65.2266C89.9141 66.0859 90.9427 66.5156 92.1094 66.5156C93.375 66.5156 94.4427 66.0781 95.3125 65.2031C96.1823 64.3177 96.6172 63.2396 96.6172 61.9688C96.6172 60.6823 96.1875 59.6042 95.3281 58.7344C94.474 57.8594 93.4167 57.4219 92.1562 57.4219C90.901 57.4219 89.8411 57.8594 88.9766 58.7344C88.112 59.599 87.6797 60.6667 87.6797 61.9375ZM102.164 60.3906V64.7578C102.164 66.0182 102.661 66.6484 103.656 66.6484C104.651 66.6484 105.148 66.0182 105.148 64.7578V60.3906H106.906V64.7969C106.906 65.4062 106.831 65.9323 106.68 66.375C106.534 66.7708 106.281 67.1276 105.922 67.4453C105.328 67.9609 104.573 68.2188 103.656 68.2188C102.745 68.2188 101.992 67.9609 101.398 67.4453C101.034 67.1276 100.776 66.7708 100.625 66.375C100.479 66.0208 100.406 65.4948 100.406 64.7969V60.3906H102.164ZM110.938 62.0312V68H109.18V62.0312H108.43V60.3906H109.18V57.6016H110.938V60.3906H112.305V62.0312H110.938ZM118.078 64.1406C118.078 63.0417 118.471 62.1068 119.258 61.3359C120.044 60.5651 121.003 60.1797 122.133 60.1797C123.268 60.1797 124.232 60.5677 125.023 61.3438C125.805 62.1198 126.195 63.0729 126.195 64.2031C126.195 65.3438 125.802 66.2995 125.016 67.0703C124.224 67.8359 123.253 68.2188 122.102 68.2188C120.961 68.2188 120.005 67.8281 119.234 67.0469C118.464 66.276 118.078 65.3073 118.078 64.1406ZM119.875 64.1719C119.875 64.9323 120.078 65.5339 120.484 65.9766C120.901 66.4245 121.451 66.6484 122.133 66.6484C122.82 66.6484 123.37 66.4271 123.781 65.9844C124.193 65.5417 124.398 64.9505 124.398 64.2109C124.398 63.4714 124.193 62.8802 123.781 62.4375C123.365 61.9896 122.815 61.7656 122.133 61.7656C121.461 61.7656 120.917 61.9896 120.5 62.4375C120.083 62.8854 119.875 63.4635 119.875 64.1719ZM129.883 62.0312V68H128.117V62.0312H127.492V60.3906H128.117V57.4531C128.117 56.4948 128.284 55.8177 128.617 55.4219C129.076 54.8698 129.742 54.5938 130.617 54.5938C130.93 54.5938 131.323 54.6849 131.797 54.8672V56.6641L131.617 56.5703C131.237 56.3776 130.924 56.2812 130.68 56.2812C130.367 56.2812 130.156 56.3932 130.047 56.6172C129.938 56.8359 129.883 57.2578 129.883 57.8828V60.3906H131.797V62.0312H129.883ZM140.148 66.5859L136.727 60.3906H138.766L141.094 64.7656L143.266 60.3906H145.25L139.188 72.1406H137.18L140.148 66.5859ZM145.781 64.1406C145.781 63.0417 146.174 62.1068 146.961 61.3359C147.747 60.5651 148.706 60.1797 149.836 60.1797C150.971 60.1797 151.935 60.5677 152.727 61.3438C153.508 62.1198 153.898 63.0729 153.898 64.2031C153.898 65.3438 153.505 66.2995 152.719 67.0703C151.927 67.8359 150.956 68.2188 149.805 68.2188C148.664 68.2188 147.708 67.8281 146.938 67.0469C146.167 66.276 145.781 65.3073 145.781 64.1406ZM147.578 64.1719C147.578 64.9323 147.781 65.5339 148.188 65.9766C148.604 66.4245 149.154 66.6484 149.836 66.6484C150.523 66.6484 151.073 66.4271 151.484 65.9844C151.896 65.5417 152.102 64.9505 152.102 64.2109C152.102 63.4714 151.896 62.8802 151.484 62.4375C151.068 61.9896 150.518 61.7656 149.836 61.7656C149.164 61.7656 148.62 61.9896 148.203 62.4375C147.786 62.8854 147.578 63.4635 147.578 64.1719ZM157.523 60.3906V64.7578C157.523 66.0182 158.021 66.6484 159.016 66.6484C160.01 66.6484 160.508 66.0182 160.508 64.7578V60.3906H162.266V64.7969C162.266 65.4062 162.19 65.9323 162.039 66.375C161.893 66.7708 161.641 67.1276 161.281 67.4453C160.688 67.9609 159.932 68.2188 159.016 68.2188C158.104 68.2188 157.352 67.9609 156.758 67.4453C156.393 67.1276 156.135 66.7708 155.984 66.375C155.839 66.0208 155.766 65.4948 155.766 64.7969V60.3906H157.523ZM164.484 60.3906H166.242V61.0703C166.565 60.7318 166.852 60.5 167.102 60.375C167.357 60.2448 167.659 60.1797 168.008 60.1797C168.471 60.1797 168.956 60.3307 169.461 60.6328L168.656 62.2422C168.323 62.0026 167.997 61.8828 167.68 61.8828C166.721 61.8828 166.242 62.6068 166.242 64.0547V68H164.484V60.3906ZM181.328 60.7188V63.0547C180.927 62.5651 180.568 62.2292 180.25 62.0469C179.938 61.8594 179.57 61.7656 179.148 61.7656C178.487 61.7656 177.938 61.9974 177.5 62.4609C177.062 62.9245 176.844 63.5052 176.844 64.2031C176.844 64.9167 177.055 65.5026 177.477 65.9609C177.904 66.4193 178.448 66.6484 179.109 66.6484C179.531 66.6484 179.904 66.5573 180.227 66.375C180.539 66.1979 180.906 65.8542 181.328 65.3438V67.6641C180.615 68.0339 179.901 68.2188 179.188 68.2188C178.01 68.2188 177.026 67.8385 176.234 67.0781C175.443 66.3125 175.047 65.362 175.047 64.2266C175.047 63.0911 175.448 62.1328 176.25 61.3516C177.052 60.5703 178.036 60.1797 179.203 60.1797C179.953 60.1797 180.661 60.3594 181.328 60.7188ZM182.672 64.1406C182.672 63.0417 183.065 62.1068 183.852 61.3359C184.638 60.5651 185.596 60.1797 186.727 60.1797C187.862 60.1797 188.826 60.5677 189.617 61.3438C190.398 62.1198 190.789 63.0729 190.789 64.2031C190.789 65.3438 190.396 66.2995 189.609 67.0703C188.818 67.8359 187.846 68.2188 186.695 68.2188C185.555 68.2188 184.599 67.8281 183.828 67.0469C183.057 66.276 182.672 65.3073 182.672 64.1406ZM184.469 64.1719C184.469 64.9323 184.672 65.5339 185.078 65.9766C185.495 66.4245 186.044 66.6484 186.727 66.6484C187.414 66.6484 187.964 66.4271 188.375 65.9844C188.786 65.5417 188.992 64.9505 188.992 64.2109C188.992 63.4714 188.786 62.8802 188.375 62.4375C187.958 61.9896 187.409 61.7656 186.727 61.7656C186.055 61.7656 185.51 61.9896 185.094 62.4375C184.677 62.8854 184.469 63.4635 184.469 64.1719ZM192.656 60.3906H194.422V61.0938C195.036 60.4844 195.729 60.1797 196.5 60.1797C197.385 60.1797 198.076 60.4583 198.57 61.0156C198.997 61.4896 199.211 62.263 199.211 63.3359V68H197.445V63.75C197.445 63 197.341 62.4818 197.133 62.1953C196.93 61.9036 196.56 61.7578 196.023 61.7578C195.44 61.7578 195.026 61.9505 194.781 62.3359C194.542 62.7161 194.422 63.3802 194.422 64.3281V68H192.656V60.3906ZM203.25 62.0312V68H201.492V62.0312H200.742V60.3906H201.492V57.6016H203.25V60.3906H204.617V62.0312H203.25ZM205.812 60.3906H207.57V61.0703C207.893 60.7318 208.18 60.5 208.43 60.375C208.685 60.2448 208.987 60.1797 209.336 60.1797C209.799 60.1797 210.284 60.3307 210.789 60.6328L209.984 62.2422C209.651 62.0026 209.326 61.8828 209.008 61.8828C208.049 61.8828 207.57 62.6068 207.57 64.0547V68H205.812V60.3906ZM211.297 64.1406C211.297 63.0417 211.69 62.1068 212.477 61.3359C213.263 60.5651 214.221 60.1797 215.352 60.1797C216.487 60.1797 217.451 60.5677 218.242 61.3438C219.023 62.1198 219.414 63.0729 219.414 64.2031C219.414 65.3438 219.021 66.2995 218.234 67.0703C217.443 67.8359 216.471 68.2188 215.32 68.2188C214.18 68.2188 213.224 67.8281 212.453 67.0469C211.682 66.276 211.297 65.3073 211.297 64.1406ZM213.094 64.1719C213.094 64.9323 213.297 65.5339 213.703 65.9766C214.12 66.4245 214.669 66.6484 215.352 66.6484C216.039 66.6484 216.589 66.4271 217 65.9844C217.411 65.5417 217.617 64.9505 217.617 64.2109C217.617 63.4714 217.411 62.8802 217 62.4375C216.583 61.9896 216.034 61.7656 215.352 61.7656C214.68 61.7656 214.135 61.9896 213.719 62.4375C213.302 62.8854 213.094 63.4635 213.094 64.1719ZM223.039 54.8047V68H221.281V54.8047H223.039Z" fill="#677083"/>
</g>
<defs>
<clipPath id="clip0">
<rect width="233" height="83" fill="white"/>
</clipPath>
</defs>
</svg>
