<svg width="2030" height="969" viewBox="0 0 2030 969" fill="none" xmlns="http://www.w3.org/2000/svg">
<rect width="2030" height="969" fill="white"/>
<rect x="120" y="411" width="273" height="106" fill="#C4C4C4"/>
<path d="M207.965 475V453.891H211.137C212.549 453.891 213.675 454 214.514 454.219C215.361 454.438 216.077 454.807 216.66 455.326C217.253 455.864 217.722 456.534 218.068 457.336C218.424 458.147 218.602 458.967 218.602 459.797C218.602 461.31 218.023 462.59 216.865 463.639C217.986 464.021 218.87 464.691 219.518 465.648C220.174 466.596 220.502 467.699 220.502 468.957C220.502 470.607 219.919 472.001 218.752 473.141C218.05 473.842 217.262 474.33 216.387 474.604C215.43 474.868 214.231 475 212.791 475H207.965ZM211.15 462.955H212.148C213.333 462.955 214.199 462.695 214.746 462.176C215.302 461.647 215.58 460.872 215.58 459.852C215.58 458.858 215.298 458.106 214.732 457.596C214.167 457.076 213.347 456.816 212.271 456.816H211.15V462.955ZM211.15 472.006H213.119C214.559 472.006 215.617 471.723 216.291 471.158C217.002 470.548 217.357 469.773 217.357 468.834C217.357 467.923 217.016 467.157 216.332 466.537C215.667 465.926 214.477 465.621 212.764 465.621H211.15V472.006ZM223.947 461.684H227.023V462.873C227.589 462.281 228.09 461.875 228.527 461.656C228.974 461.428 229.503 461.314 230.113 461.314C230.924 461.314 231.772 461.579 232.656 462.107L231.248 464.924C230.665 464.505 230.095 464.295 229.539 464.295C227.862 464.295 227.023 465.562 227.023 468.096V475H223.947V461.684ZM233.545 468.246C233.545 466.323 234.233 464.687 235.609 463.338C236.986 461.989 238.663 461.314 240.641 461.314C242.628 461.314 244.314 461.993 245.699 463.352C247.066 464.71 247.75 466.378 247.75 468.355C247.75 470.352 247.062 472.024 245.686 473.373C244.3 474.713 242.6 475.383 240.586 475.383C238.59 475.383 236.917 474.699 235.568 473.332C234.219 471.983 233.545 470.288 233.545 468.246ZM236.689 468.301C236.689 469.632 237.045 470.684 237.756 471.459C238.485 472.243 239.447 472.635 240.641 472.635C241.844 472.635 242.805 472.247 243.525 471.473C244.245 470.698 244.605 469.663 244.605 468.369C244.605 467.075 244.245 466.04 243.525 465.266C242.796 464.482 241.835 464.09 240.641 464.09C239.465 464.09 238.512 464.482 237.783 465.266C237.054 466.049 236.689 467.061 236.689 468.301ZM252.139 461.684L255.625 469.285L259.385 460.467L263.172 469.285L266.617 461.684H270.062L263.09 475.998L259.385 467.426L255.639 475.998L248.68 461.684H252.139ZM279.893 463.953L277.35 465.307C276.949 464.486 276.452 464.076 275.859 464.076C275.577 464.076 275.335 464.172 275.135 464.363C274.934 464.546 274.834 464.783 274.834 465.074C274.834 465.585 275.426 466.09 276.611 466.592C278.243 467.294 279.341 467.941 279.906 468.533C280.471 469.126 280.754 469.923 280.754 470.926C280.754 472.211 280.28 473.286 279.332 474.152C278.411 474.973 277.299 475.383 275.996 475.383C273.763 475.383 272.182 474.294 271.252 472.115L273.877 470.898C274.242 471.536 274.52 471.942 274.711 472.115C275.085 472.462 275.531 472.635 276.051 472.635C277.09 472.635 277.609 472.161 277.609 471.213C277.609 470.666 277.208 470.156 276.406 469.682C276.096 469.527 275.786 469.376 275.477 469.23C275.167 469.085 274.852 468.934 274.533 468.779C273.64 468.342 273.011 467.904 272.646 467.467C272.182 466.911 271.949 466.195 271.949 465.32C271.949 464.163 272.346 463.206 273.139 462.449C273.95 461.693 274.934 461.314 276.092 461.314C277.796 461.314 279.063 462.194 279.893 463.953ZM295.656 469.066H286.113C286.195 470.16 286.551 471.031 287.18 471.678C287.809 472.316 288.615 472.635 289.6 472.635C290.365 472.635 290.999 472.452 291.5 472.088C291.992 471.723 292.553 471.049 293.182 470.064L295.779 471.514C295.378 472.197 294.954 472.785 294.508 473.277C294.061 473.76 293.583 474.161 293.072 474.48C292.562 474.79 292.01 475.018 291.418 475.164C290.826 475.31 290.183 475.383 289.49 475.383C287.503 475.383 285.908 474.745 284.705 473.469C283.502 472.184 282.9 470.479 282.9 468.355C282.9 466.25 283.484 464.546 284.65 463.242C285.826 461.957 287.385 461.314 289.326 461.314C291.286 461.314 292.835 461.939 293.975 463.188C295.105 464.427 295.67 466.145 295.67 468.342L295.656 469.066ZM292.498 466.551C292.07 464.91 291.035 464.09 289.395 464.09C289.021 464.09 288.67 464.149 288.342 464.268C288.014 464.377 287.713 464.541 287.439 464.76C287.175 464.969 286.947 465.225 286.756 465.525C286.564 465.826 286.419 466.168 286.318 466.551H292.498ZM299.033 461.684H302.109V462.873C302.674 462.281 303.176 461.875 303.613 461.656C304.06 461.428 304.589 461.314 305.199 461.314C306.01 461.314 306.858 461.579 307.742 462.107L306.334 464.924C305.751 464.505 305.181 464.295 304.625 464.295C302.948 464.295 302.109 465.562 302.109 468.096V475H299.033V461.684Z" fill="black"/>
<rect x="1605" y="411" width="273" height="106" fill="#C4C4C4"/>
<path d="M1714.83 456.885H1706.36V461.957H1714.58V464.951H1706.36V472.006H1714.83V475H1703.18V453.891H1714.83V456.885ZM1721.61 464.555V475H1718.52V464.555H1717.42V461.684H1718.52V456.543C1718.52 454.866 1718.81 453.681 1719.39 452.988C1720.19 452.022 1721.36 451.539 1722.89 451.539C1723.44 451.539 1724.13 451.699 1724.96 452.018V455.162L1724.64 454.998C1723.98 454.661 1723.43 454.492 1723 454.492C1722.46 454.492 1722.09 454.688 1721.89 455.08C1721.7 455.463 1721.61 456.201 1721.61 457.295V461.684H1724.96V464.555H1721.61ZM1730.85 464.555V475H1727.76V464.555H1726.67V461.684H1727.76V456.543C1727.76 454.866 1728.05 453.681 1728.63 452.988C1729.44 452.022 1730.6 451.539 1732.13 451.539C1732.68 451.539 1733.37 451.699 1734.2 452.018V455.162L1733.88 454.998C1733.22 454.661 1732.67 454.492 1732.24 454.492C1731.7 454.492 1731.33 454.688 1731.14 455.08C1730.95 455.463 1730.85 456.201 1730.85 457.295V461.684H1734.2V464.555H1730.85ZM1748.54 469.066H1739C1739.08 470.16 1739.44 471.031 1740.06 471.678C1740.69 472.316 1741.5 472.635 1742.48 472.635C1743.25 472.635 1743.88 472.452 1744.38 472.088C1744.88 471.723 1745.44 471.049 1746.07 470.064L1748.66 471.514C1748.26 472.197 1747.84 472.785 1747.39 473.277C1746.95 473.76 1746.47 474.161 1745.96 474.48C1745.45 474.79 1744.9 475.018 1744.3 475.164C1743.71 475.31 1743.07 475.383 1742.38 475.383C1740.39 475.383 1738.79 474.745 1737.59 473.469C1736.39 472.184 1735.79 470.479 1735.79 468.355C1735.79 466.25 1736.37 464.546 1737.54 463.242C1738.71 461.957 1740.27 461.314 1742.21 461.314C1744.17 461.314 1745.72 461.939 1746.86 463.188C1747.99 464.427 1748.55 466.145 1748.55 468.342L1748.54 469.066ZM1745.38 466.551C1744.95 464.91 1743.92 464.09 1742.28 464.09C1741.91 464.09 1741.55 464.149 1741.23 464.268C1740.9 464.377 1740.6 464.541 1740.32 464.76C1740.06 464.969 1739.83 465.225 1739.64 465.525C1739.45 465.826 1739.3 466.168 1739.2 466.551H1745.38ZM1762.28 462.258V466.346C1761.58 465.489 1760.95 464.901 1760.39 464.582C1759.85 464.254 1759.21 464.09 1758.47 464.09C1757.31 464.09 1756.35 464.495 1755.58 465.307C1754.82 466.118 1754.43 467.134 1754.43 468.355C1754.43 469.604 1754.8 470.63 1755.54 471.432C1756.29 472.234 1757.24 472.635 1758.4 472.635C1759.14 472.635 1759.79 472.475 1760.35 472.156C1760.9 471.846 1761.54 471.245 1762.28 470.352V474.412C1761.03 475.059 1759.78 475.383 1758.54 475.383C1756.48 475.383 1754.75 474.717 1753.37 473.387C1751.98 472.047 1751.29 470.383 1751.29 468.396C1751.29 466.41 1751.99 464.732 1753.39 463.365C1754.8 461.998 1756.52 461.314 1758.56 461.314C1759.88 461.314 1761.11 461.629 1762.28 462.258ZM1768.43 464.555V475H1765.36V464.555H1764.04V461.684H1765.36V456.803H1768.43V461.684H1770.83V464.555H1768.43ZM1780.66 463.953L1778.11 465.307C1777.71 464.486 1777.22 464.076 1776.62 464.076C1776.34 464.076 1776.1 464.172 1775.9 464.363C1775.7 464.546 1775.6 464.783 1775.6 465.074C1775.6 465.585 1776.19 466.09 1777.38 466.592C1779.01 467.294 1780.1 467.941 1780.67 468.533C1781.24 469.126 1781.52 469.923 1781.52 470.926C1781.52 472.211 1781.04 473.286 1780.1 474.152C1779.18 474.973 1778.06 475.383 1776.76 475.383C1774.53 475.383 1772.95 474.294 1772.02 472.115L1774.64 470.898C1775.01 471.536 1775.28 471.942 1775.47 472.115C1775.85 472.462 1776.29 472.635 1776.81 472.635C1777.85 472.635 1778.37 472.161 1778.37 471.213C1778.37 470.666 1777.97 470.156 1777.17 469.682C1776.86 469.527 1776.55 469.376 1776.24 469.23C1775.93 469.085 1775.62 468.934 1775.3 468.779C1774.4 468.342 1773.77 467.904 1773.41 467.467C1772.95 466.911 1772.71 466.195 1772.71 465.32C1772.71 464.163 1773.11 463.206 1773.9 462.449C1774.71 461.693 1775.7 461.314 1776.86 461.314C1778.56 461.314 1779.83 462.194 1780.66 463.953Z" fill="black"/>
<rect x="788" y="411" width="422" height="106" fill="#8BDFC1"/>
<path d="M862.178 456.885H853.715V461.957H861.932V464.951H853.715V472.006H862.178V475H850.529V453.891H862.178V456.885ZM868.85 451.908V475H865.773V451.908H868.85ZM872.746 461.684H875.822V462.914C876.415 462.294 876.921 461.875 877.34 461.656C877.786 461.428 878.347 461.314 879.021 461.314C880.525 461.314 881.715 461.971 882.59 463.283C883.556 461.971 884.864 461.314 886.514 461.314C889.512 461.314 891.012 463.133 891.012 466.77V475H887.922V467.604C887.922 466.327 887.767 465.425 887.457 464.896C887.138 464.359 886.614 464.09 885.885 464.09C885.037 464.09 884.417 464.409 884.025 465.047C883.643 465.685 883.451 466.71 883.451 468.123V475H880.361V467.645C880.361 465.275 879.678 464.09 878.311 464.09C877.445 464.09 876.811 464.413 876.41 465.061C876.018 465.708 875.822 466.729 875.822 468.123V475H872.746V461.684ZM911.273 466.004L917.809 475H913.912L907.883 466.359H907.309V475H904.123V453.891H907.855C910.645 453.891 912.659 454.415 913.898 455.463C915.266 456.63 915.949 458.17 915.949 460.084C915.949 461.579 915.521 462.864 914.664 463.939C913.807 465.015 912.677 465.703 911.273 466.004ZM907.309 463.584H908.32C911.337 463.584 912.846 462.431 912.846 460.125C912.846 457.965 911.378 456.885 908.443 456.885H907.309V463.584ZM923.045 461.684V469.326C923.045 471.532 923.915 472.635 925.656 472.635C927.397 472.635 928.268 471.532 928.268 469.326V461.684H931.344V469.395C931.344 470.461 931.212 471.382 930.947 472.156C930.692 472.849 930.25 473.473 929.621 474.029C928.582 474.932 927.26 475.383 925.656 475.383C924.061 475.383 922.744 474.932 921.705 474.029C921.067 473.473 920.616 472.849 920.352 472.156C920.096 471.536 919.969 470.616 919.969 469.395V461.684H923.045ZM935.227 461.684H938.316V462.914C939.392 461.848 940.604 461.314 941.953 461.314C943.503 461.314 944.71 461.802 945.576 462.777C946.324 463.607 946.697 464.96 946.697 466.838V475H943.607V467.562C943.607 466.25 943.425 465.343 943.061 464.842C942.705 464.331 942.058 464.076 941.119 464.076C940.098 464.076 939.374 464.413 938.945 465.088C938.526 465.753 938.316 466.915 938.316 468.574V475H935.227V461.684ZM953.766 464.555V475H950.689V464.555H949.377V461.684H950.689V456.803H953.766V461.684H956.158V464.555H953.766ZM961.326 461.684V475H958.25V461.684H961.326ZM957.785 456.146C957.785 455.609 957.981 455.144 958.373 454.752C958.765 454.36 959.234 454.164 959.781 454.164C960.337 454.164 960.811 454.36 961.203 454.752C961.595 455.135 961.791 455.604 961.791 456.16C961.791 456.716 961.595 457.19 961.203 457.582C960.82 457.974 960.351 458.17 959.795 458.17C959.239 458.17 958.765 457.974 958.373 457.582C957.981 457.19 957.785 456.712 957.785 456.146ZM965.223 461.684H968.299V462.914C968.891 462.294 969.397 461.875 969.816 461.656C970.263 461.428 970.824 461.314 971.498 461.314C973.002 461.314 974.191 461.971 975.066 463.283C976.033 461.971 977.34 461.314 978.99 461.314C981.989 461.314 983.488 463.133 983.488 466.77V475H980.398V467.604C980.398 466.327 980.243 465.425 979.934 464.896C979.615 464.359 979.09 464.09 978.361 464.09C977.514 464.09 976.894 464.409 976.502 465.047C976.119 465.685 975.928 466.71 975.928 468.123V475H972.838V467.645C972.838 465.275 972.154 464.09 970.787 464.09C969.921 464.09 969.288 464.413 968.887 465.061C968.495 465.708 968.299 466.729 968.299 468.123V475H965.223V461.684ZM999.498 469.066H989.955C990.037 470.16 990.393 471.031 991.021 471.678C991.65 472.316 992.457 472.635 993.441 472.635C994.207 472.635 994.84 472.452 995.342 472.088C995.834 471.723 996.395 471.049 997.023 470.064L999.621 471.514C999.22 472.197 998.796 472.785 998.35 473.277C997.903 473.76 997.424 474.161 996.914 474.48C996.404 474.79 995.852 475.018 995.26 475.164C994.667 475.31 994.025 475.383 993.332 475.383C991.345 475.383 989.75 474.745 988.547 473.469C987.344 472.184 986.742 470.479 986.742 468.355C986.742 466.25 987.326 464.546 988.492 463.242C989.668 461.957 991.227 461.314 993.168 461.314C995.128 461.314 996.677 461.939 997.816 463.188C998.947 464.427 999.512 466.145 999.512 468.342L999.498 469.066ZM996.34 466.551C995.911 464.91 994.877 464.09 993.236 464.09C992.863 464.09 992.512 464.149 992.184 464.268C991.855 464.377 991.555 464.541 991.281 464.76C991.017 464.969 990.789 465.225 990.598 465.525C990.406 465.826 990.26 466.168 990.16 466.551H996.34Z" fill="black"/>
<rect x="862" y="67" width="273" height="106" fill="#E4DC8C"/>
<path d="M956.869 109.891V122.605C956.869 124.419 957.165 125.745 957.758 126.584C958.642 127.796 959.886 128.402 961.49 128.402C963.104 128.402 964.352 127.796 965.236 126.584C965.829 125.773 966.125 124.447 966.125 122.605V109.891H969.311V123.48C969.311 125.704 968.618 127.536 967.232 128.977C965.674 130.581 963.76 131.383 961.49 131.383C959.221 131.383 957.311 130.581 955.762 128.977C954.376 127.536 953.684 125.704 953.684 123.48V109.891H956.869ZM977.09 138.246H974.014V117.684H977.09V119.133C978.302 117.921 979.678 117.314 981.219 117.314C983.051 117.314 984.559 117.989 985.744 119.338C986.947 120.678 987.549 122.368 987.549 124.41C987.549 126.406 986.952 128.07 985.758 129.4C984.573 130.722 983.078 131.383 981.273 131.383C979.715 131.383 978.32 130.758 977.09 129.51V138.246ZM984.404 124.424C984.404 123.148 984.058 122.109 983.365 121.307C982.663 120.495 981.779 120.09 980.713 120.09C979.583 120.09 978.667 120.482 977.965 121.266C977.263 122.049 976.912 123.079 976.912 124.355C976.912 125.604 977.263 126.634 977.965 127.445C978.658 128.238 979.569 128.635 980.699 128.635C981.766 128.635 982.645 128.234 983.338 127.432C984.049 126.63 984.404 125.627 984.404 124.424ZM1000.62 107.908H1003.71V131H1000.62V129.605C999.407 130.79 998.035 131.383 996.504 131.383C994.681 131.383 993.168 130.717 991.965 129.387C990.771 128.029 990.174 126.333 990.174 124.301C990.174 122.314 990.771 120.655 991.965 119.324C993.15 117.984 994.64 117.314 996.436 117.314C997.994 117.314 999.389 117.952 1000.62 119.229V107.908ZM993.318 124.301C993.318 125.577 993.66 126.616 994.344 127.418C995.046 128.229 995.93 128.635 996.996 128.635C998.135 128.635 999.056 128.243 999.758 127.459C1000.46 126.648 1000.81 125.618 1000.81 124.369C1000.81 123.12 1000.46 122.09 999.758 121.279C999.056 120.486 998.145 120.09 997.023 120.09C995.966 120.09 995.082 120.491 994.371 121.293C993.669 122.104 993.318 123.107 993.318 124.301ZM1017.41 117.684H1020.5V131H1017.41V129.605C1016.14 130.79 1014.78 131.383 1013.32 131.383C1011.48 131.383 1009.96 130.717 1008.75 129.387C1007.56 128.029 1006.96 126.333 1006.96 124.301C1006.96 122.305 1007.56 120.641 1008.75 119.311C1009.95 117.98 1011.44 117.314 1013.24 117.314C1014.79 117.314 1016.18 117.952 1017.41 119.229V117.684ZM1010.11 124.301C1010.11 125.577 1010.45 126.616 1011.13 127.418C1011.83 128.229 1012.72 128.635 1013.79 128.635C1014.92 128.635 1015.85 128.243 1016.55 127.459C1017.25 126.648 1017.6 125.618 1017.6 124.369C1017.6 123.12 1017.25 122.09 1016.55 121.279C1015.85 120.486 1014.93 120.09 1013.81 120.09C1012.76 120.09 1011.87 120.491 1011.16 121.293C1010.46 122.104 1010.11 123.107 1010.11 124.301ZM1027.55 120.555V131H1024.48V120.555H1023.16V117.684H1024.48V112.803H1027.55V117.684H1029.95V120.555H1027.55ZM1044.41 125.066H1034.87C1034.95 126.16 1035.3 127.031 1035.93 127.678C1036.56 128.316 1037.37 128.635 1038.35 128.635C1039.12 128.635 1039.75 128.452 1040.25 128.088C1040.75 127.723 1041.31 127.049 1041.94 126.064L1044.53 127.514C1044.13 128.197 1043.71 128.785 1043.26 129.277C1042.82 129.76 1042.34 130.161 1041.83 130.48C1041.32 130.79 1040.76 131.018 1040.17 131.164C1039.58 131.31 1038.94 131.383 1038.24 131.383C1036.26 131.383 1034.66 130.745 1033.46 129.469C1032.26 128.184 1031.65 126.479 1031.65 124.355C1031.65 122.25 1032.24 120.546 1033.4 119.242C1034.58 117.957 1036.14 117.314 1038.08 117.314C1040.04 117.314 1041.59 117.939 1042.73 119.188C1043.86 120.427 1044.42 122.145 1044.42 124.342L1044.41 125.066ZM1041.25 122.551C1040.82 120.91 1039.79 120.09 1038.15 120.09C1037.77 120.09 1037.42 120.149 1037.1 120.268C1036.77 120.377 1036.47 120.541 1036.19 120.76C1035.93 120.969 1035.7 121.225 1035.51 121.525C1035.32 121.826 1035.17 122.168 1035.07 122.551H1041.25Z" fill="black"/>
<rect x="862" y="738" width="273" height="106" fill="#E4DC8C"/>
<path d="M970.623 780.891L976.461 795.52L982.381 780.891H985.867L976.393 803.586L967.137 780.891H970.623ZM991.268 788.684V802H988.191V788.684H991.268ZM987.727 783.146C987.727 782.609 987.923 782.144 988.314 781.752C988.706 781.36 989.176 781.164 989.723 781.164C990.279 781.164 990.753 781.36 991.145 781.752C991.536 782.135 991.732 782.604 991.732 783.16C991.732 783.716 991.536 784.19 991.145 784.582C990.762 784.974 990.292 785.17 989.736 785.17C989.18 785.17 988.706 784.974 988.314 784.582C987.923 784.19 987.727 783.712 987.727 783.146ZM1007.29 796.066H997.748C997.83 797.16 998.186 798.031 998.814 798.678C999.443 799.316 1000.25 799.635 1001.23 799.635C1002 799.635 1002.63 799.452 1003.13 799.088C1003.63 798.723 1004.19 798.049 1004.82 797.064L1007.41 798.514C1007.01 799.197 1006.59 799.785 1006.14 800.277C1005.7 800.76 1005.22 801.161 1004.71 801.48C1004.2 801.79 1003.65 802.018 1003.05 802.164C1002.46 802.31 1001.82 802.383 1001.12 802.383C999.138 802.383 997.543 801.745 996.34 800.469C995.137 799.184 994.535 797.479 994.535 795.355C994.535 793.25 995.118 791.546 996.285 790.242C997.461 788.957 999.02 788.314 1000.96 788.314C1002.92 788.314 1004.47 788.939 1005.61 790.188C1006.74 791.427 1007.3 793.145 1007.3 795.342L1007.29 796.066ZM1004.13 793.551C1003.7 791.91 1002.67 791.09 1001.03 791.09C1000.66 791.09 1000.3 791.149 999.977 791.268C999.648 791.377 999.348 791.541 999.074 791.76C998.81 791.969 998.582 792.225 998.391 792.525C998.199 792.826 998.053 793.168 997.953 793.551H1004.13ZM1011.9 788.684L1015.38 796.285L1019.14 787.467L1022.93 796.285L1026.38 788.684H1029.82L1022.85 802.998L1019.14 794.426L1015.4 802.998L1008.44 788.684H1011.9Z" fill="black"/>
<rect x="1029" y="437" width="137" height="54" rx="5" fill="#22ACCA"/>
<path d="M1060.31 461.684H1063.39V462.914C1063.98 462.294 1064.49 461.875 1064.91 461.656C1065.35 461.428 1065.91 461.314 1066.59 461.314C1068.09 461.314 1069.28 461.971 1070.16 463.283C1071.12 461.971 1072.43 461.314 1074.08 461.314C1077.08 461.314 1078.58 463.133 1078.58 466.77V475H1075.49V467.604C1075.49 466.327 1075.33 465.425 1075.02 464.896C1074.7 464.359 1074.18 464.09 1073.45 464.09C1072.6 464.09 1071.98 464.409 1071.59 465.047C1071.21 465.685 1071.02 466.71 1071.02 468.123V475H1067.93V467.645C1067.93 465.275 1067.24 464.09 1065.88 464.09C1065.01 464.09 1064.38 464.413 1063.98 465.061C1063.58 465.708 1063.39 466.729 1063.39 468.123V475H1060.31V461.684ZM1081.83 468.246C1081.83 466.323 1082.52 464.687 1083.9 463.338C1085.27 461.989 1086.95 461.314 1088.93 461.314C1090.91 461.314 1092.6 461.993 1093.99 463.352C1095.35 464.71 1096.04 466.378 1096.04 468.355C1096.04 470.352 1095.35 472.024 1093.97 473.373C1092.59 474.713 1090.89 475.383 1088.87 475.383C1086.88 475.383 1085.2 474.699 1083.86 473.332C1082.51 471.983 1081.83 470.288 1081.83 468.246ZM1084.98 468.301C1084.98 469.632 1085.33 470.684 1086.04 471.459C1086.77 472.243 1087.73 472.635 1088.93 472.635C1090.13 472.635 1091.09 472.247 1091.81 471.473C1092.53 470.698 1092.89 469.663 1092.89 468.369C1092.89 467.075 1092.53 466.04 1091.81 465.266C1091.08 464.482 1090.12 464.09 1088.93 464.09C1087.75 464.09 1086.8 464.482 1086.07 465.266C1085.34 466.049 1084.98 467.061 1084.98 468.301ZM1109.12 451.908H1112.21V475H1109.12V473.605C1107.91 474.79 1106.54 475.383 1105.01 475.383C1103.18 475.383 1101.67 474.717 1100.47 473.387C1099.27 472.029 1098.68 470.333 1098.68 468.301C1098.68 466.314 1099.27 464.655 1100.47 463.324C1101.65 461.984 1103.14 461.314 1104.94 461.314C1106.5 461.314 1107.89 461.952 1109.12 463.229V451.908ZM1101.82 468.301C1101.82 469.577 1102.16 470.616 1102.85 471.418C1103.55 472.229 1104.43 472.635 1105.5 472.635C1106.64 472.635 1107.56 472.243 1108.26 471.459C1108.96 470.648 1109.31 469.618 1109.31 468.369C1109.31 467.12 1108.96 466.09 1108.26 465.279C1107.56 464.486 1106.65 464.09 1105.53 464.09C1104.47 464.09 1103.58 464.491 1102.87 465.293C1102.17 466.104 1101.82 467.107 1101.82 468.301ZM1128.22 469.066H1118.68C1118.76 470.16 1119.12 471.031 1119.74 471.678C1120.37 472.316 1121.18 472.635 1122.16 472.635C1122.93 472.635 1123.56 472.452 1124.06 472.088C1124.56 471.723 1125.12 471.049 1125.75 470.064L1128.34 471.514C1127.94 472.197 1127.52 472.785 1127.07 473.277C1126.63 473.76 1126.15 474.161 1125.64 474.48C1125.13 474.79 1124.57 475.018 1123.98 475.164C1123.39 475.31 1122.75 475.383 1122.05 475.383C1120.07 475.383 1118.47 474.745 1117.27 473.469C1116.07 472.184 1115.46 470.479 1115.46 468.355C1115.46 466.25 1116.05 464.546 1117.21 463.242C1118.39 461.957 1119.95 461.314 1121.89 461.314C1123.85 461.314 1125.4 461.939 1126.54 463.188C1127.67 464.427 1128.23 466.145 1128.23 468.342L1128.22 469.066ZM1125.06 466.551C1124.63 464.91 1123.6 464.09 1121.96 464.09C1121.59 464.09 1121.23 464.149 1120.91 464.268C1120.58 464.377 1120.28 464.541 1120 464.76C1119.74 464.969 1119.51 465.225 1119.32 465.525C1119.13 465.826 1118.98 466.168 1118.88 466.551H1125.06ZM1134.67 451.908V475H1131.6V451.908H1134.67Z" fill="white"/>
<path d="M1253.46 515.464C1251.51 517.417 1251.51 520.583 1253.46 522.536L1285.28 554.355C1287.24 556.308 1290.4 556.308 1292.36 554.355C1294.31 552.403 1294.31 549.237 1292.36 547.284L1264.07 519L1292.36 490.716C1294.31 488.763 1294.31 485.597 1292.36 483.645C1290.4 481.692 1287.24 481.692 1285.28 483.645L1253.46 515.464ZM1566 514L1257 514L1257 524L1566 524L1566 514Z" fill="black"/>
<rect x="1343" y="491" width="137" height="54" rx="5" fill="#A822CA"/>
<path d="M1388.3 515.684H1391.38V516.914C1391.97 516.294 1392.47 515.875 1392.89 515.656C1393.34 515.428 1393.9 515.314 1394.57 515.314C1396.08 515.314 1397.27 515.971 1398.14 517.283C1399.11 515.971 1400.42 515.314 1402.07 515.314C1405.07 515.314 1406.56 517.133 1406.56 520.77V529H1403.47V521.604C1403.47 520.327 1403.32 519.425 1403.01 518.896C1402.69 518.359 1402.17 518.09 1401.44 518.09C1400.59 518.09 1399.97 518.409 1399.58 519.047C1399.2 519.685 1399 520.71 1399 522.123V529H1395.91V521.645C1395.91 519.275 1395.23 518.09 1393.86 518.09C1393 518.09 1392.36 518.413 1391.96 519.061C1391.57 519.708 1391.38 520.729 1391.38 522.123V529H1388.3V515.684ZM1418.19 517.953L1415.64 519.307C1415.24 518.486 1414.74 518.076 1414.15 518.076C1413.87 518.076 1413.63 518.172 1413.43 518.363C1413.23 518.546 1413.13 518.783 1413.13 519.074C1413.13 519.585 1413.72 520.09 1414.9 520.592C1416.54 521.294 1417.63 521.941 1418.2 522.533C1418.76 523.126 1419.05 523.923 1419.05 524.926C1419.05 526.211 1418.57 527.286 1417.62 528.152C1416.7 528.973 1415.59 529.383 1414.29 529.383C1412.06 529.383 1410.47 528.294 1409.54 526.115L1412.17 524.898C1412.53 525.536 1412.81 525.942 1413 526.115C1413.38 526.462 1413.82 526.635 1414.34 526.635C1415.38 526.635 1415.9 526.161 1415.9 525.213C1415.9 524.666 1415.5 524.156 1414.7 523.682C1414.39 523.527 1414.08 523.376 1413.77 523.23C1413.46 523.085 1413.15 522.934 1412.83 522.779C1411.93 522.342 1411.3 521.904 1410.94 521.467C1410.47 520.911 1410.24 520.195 1410.24 519.32C1410.24 518.163 1410.64 517.206 1411.43 516.449C1412.24 515.693 1413.23 515.314 1414.38 515.314C1416.09 515.314 1417.36 516.194 1418.19 517.953ZM1434.7 528.686C1434.7 529.314 1434.68 529.866 1434.63 530.34C1434.6 530.823 1434.54 531.247 1434.47 531.611C1434.25 532.614 1433.82 533.475 1433.18 534.195C1431.98 535.581 1430.33 536.273 1428.22 536.273C1426.44 536.273 1424.98 535.795 1423.83 534.838C1422.65 533.854 1421.96 532.491 1421.78 530.75H1424.87C1424.99 531.406 1425.19 531.912 1425.46 532.268C1426.1 533.097 1427.03 533.512 1428.25 533.512C1430.5 533.512 1431.62 532.131 1431.62 529.369V527.51C1430.4 528.758 1429 529.383 1427.4 529.383C1425.59 529.383 1424.1 528.727 1422.94 527.414C1421.78 526.083 1421.19 524.42 1421.19 522.424C1421.19 520.482 1421.74 518.833 1422.82 517.475C1423.99 516.035 1425.53 515.314 1427.44 515.314C1429.12 515.314 1430.51 515.939 1431.62 517.188V515.684H1434.7V528.686ZM1431.75 522.369C1431.75 521.075 1431.4 520.04 1430.71 519.266C1430.01 518.473 1429.11 518.076 1428.02 518.076C1426.85 518.076 1425.93 518.509 1425.25 519.375C1424.64 520.15 1424.34 521.152 1424.34 522.383C1424.34 523.595 1424.64 524.589 1425.25 525.363C1425.92 526.211 1426.84 526.635 1428.02 526.635C1429.19 526.635 1430.12 526.206 1430.8 525.35C1431.43 524.575 1431.75 523.581 1431.75 522.369Z" fill="white"/>
<path d="M920.536 193.464C918.583 191.512 915.417 191.512 913.464 193.464L881.645 225.284C879.692 227.237 879.692 230.403 881.645 232.355C883.597 234.308 886.763 234.308 888.716 232.355L917 204.071L945.284 232.355C947.237 234.308 950.403 234.308 952.355 232.355C954.308 230.403 954.308 227.237 952.355 225.284L920.536 193.464ZM922 388L922 197L912 197L912 388L922 388Z" fill="black"/>
<rect x="848" y="247" width="137" height="54" rx="5" fill="#A822CA"/>
<path d="M893.299 271.684H896.375V272.914C896.967 272.294 897.473 271.875 897.893 271.656C898.339 271.428 898.9 271.314 899.574 271.314C901.078 271.314 902.268 271.971 903.143 273.283C904.109 271.971 905.417 271.314 907.066 271.314C910.065 271.314 911.564 273.133 911.564 276.77V285H908.475V277.604C908.475 276.327 908.32 275.425 908.01 274.896C907.691 274.359 907.167 274.09 906.438 274.09C905.59 274.09 904.97 274.409 904.578 275.047C904.195 275.685 904.004 276.71 904.004 278.123V285H900.914V277.645C900.914 275.275 900.23 274.09 898.863 274.09C897.997 274.09 897.364 274.413 896.963 275.061C896.571 275.708 896.375 276.729 896.375 278.123V285H893.299V271.684ZM923.186 273.953L920.643 275.307C920.242 274.486 919.745 274.076 919.152 274.076C918.87 274.076 918.628 274.172 918.428 274.363C918.227 274.546 918.127 274.783 918.127 275.074C918.127 275.585 918.719 276.09 919.904 276.592C921.536 277.294 922.634 277.941 923.199 278.533C923.764 279.126 924.047 279.923 924.047 280.926C924.047 282.211 923.573 283.286 922.625 284.152C921.704 284.973 920.592 285.383 919.289 285.383C917.056 285.383 915.475 284.294 914.545 282.115L917.17 280.898C917.535 281.536 917.812 281.942 918.004 282.115C918.378 282.462 918.824 282.635 919.344 282.635C920.383 282.635 920.902 282.161 920.902 281.213C920.902 280.666 920.501 280.156 919.699 279.682C919.389 279.527 919.079 279.376 918.77 279.23C918.46 279.085 918.145 278.934 917.826 278.779C916.933 278.342 916.304 277.904 915.939 277.467C915.475 276.911 915.242 276.195 915.242 275.32C915.242 274.163 915.639 273.206 916.432 272.449C917.243 271.693 918.227 271.314 919.385 271.314C921.089 271.314 922.356 272.194 923.186 273.953ZM939.701 284.686C939.701 285.314 939.678 285.866 939.633 286.34C939.596 286.823 939.542 287.247 939.469 287.611C939.25 288.614 938.822 289.475 938.184 290.195C936.98 291.581 935.326 292.273 933.221 292.273C931.443 292.273 929.98 291.795 928.832 290.838C927.647 289.854 926.964 288.491 926.781 286.75H929.871C929.99 287.406 930.186 287.912 930.459 288.268C931.097 289.097 932.027 289.512 933.248 289.512C935.499 289.512 936.625 288.131 936.625 285.369V283.51C935.404 284.758 933.995 285.383 932.4 285.383C930.587 285.383 929.101 284.727 927.943 283.414C926.777 282.083 926.193 280.42 926.193 278.424C926.193 276.482 926.736 274.833 927.82 273.475C928.987 272.035 930.527 271.314 932.441 271.314C934.118 271.314 935.513 271.939 936.625 273.188V271.684H939.701V284.686ZM936.748 278.369C936.748 277.075 936.402 276.04 935.709 275.266C935.007 274.473 934.109 274.076 933.016 274.076C931.849 274.076 930.928 274.509 930.254 275.375C929.643 276.15 929.338 277.152 929.338 278.383C929.338 279.595 929.643 280.589 930.254 281.363C930.919 282.211 931.84 282.635 933.016 282.635C934.191 282.635 935.121 282.206 935.805 281.35C936.434 280.575 936.748 279.581 936.748 278.369Z" fill="white"/>
<rect x="848" y="307" width="137" height="54" rx="5" fill="#22ACCA"/>
<path d="M879.312 331.684H882.389V332.914C882.981 332.294 883.487 331.875 883.906 331.656C884.353 331.428 884.913 331.314 885.588 331.314C887.092 331.314 888.281 331.971 889.156 333.283C890.122 331.971 891.43 331.314 893.08 331.314C896.079 331.314 897.578 333.133 897.578 336.77V345H894.488V337.604C894.488 336.327 894.333 335.425 894.023 334.896C893.704 334.359 893.18 334.09 892.451 334.09C891.604 334.09 890.984 334.409 890.592 335.047C890.209 335.685 890.018 336.71 890.018 338.123V345H886.928V337.645C886.928 335.275 886.244 334.09 884.877 334.09C884.011 334.09 883.378 334.413 882.977 335.061C882.585 335.708 882.389 336.729 882.389 338.123V345H879.312V331.684ZM900.832 338.246C900.832 336.323 901.52 334.687 902.896 333.338C904.273 331.989 905.95 331.314 907.928 331.314C909.915 331.314 911.601 331.993 912.986 333.352C914.354 334.71 915.037 336.378 915.037 338.355C915.037 340.352 914.349 342.024 912.973 343.373C911.587 344.713 909.887 345.383 907.873 345.383C905.877 345.383 904.204 344.699 902.855 343.332C901.507 341.983 900.832 340.288 900.832 338.246ZM903.977 338.301C903.977 339.632 904.332 340.684 905.043 341.459C905.772 342.243 906.734 342.635 907.928 342.635C909.131 342.635 910.092 342.247 910.812 341.473C911.533 340.698 911.893 339.663 911.893 338.369C911.893 337.075 911.533 336.04 910.812 335.266C910.083 334.482 909.122 334.09 907.928 334.09C906.752 334.09 905.799 334.482 905.07 335.266C904.341 336.049 903.977 337.061 903.977 338.301ZM928.121 321.908H931.211V345H928.121V343.605C926.909 344.79 925.537 345.383 924.006 345.383C922.183 345.383 920.67 344.717 919.467 343.387C918.273 342.029 917.676 340.333 917.676 338.301C917.676 336.314 918.273 334.655 919.467 333.324C920.652 331.984 922.142 331.314 923.938 331.314C925.496 331.314 926.891 331.952 928.121 333.229V321.908ZM920.82 338.301C920.82 339.577 921.162 340.616 921.846 341.418C922.548 342.229 923.432 342.635 924.498 342.635C925.637 342.635 926.558 342.243 927.26 341.459C927.962 340.648 928.312 339.618 928.312 338.369C928.312 337.12 927.962 336.09 927.26 335.279C926.558 334.486 925.646 334.09 924.525 334.09C923.468 334.09 922.584 334.491 921.873 335.293C921.171 336.104 920.82 337.107 920.82 338.301ZM947.221 339.066H937.678C937.76 340.16 938.115 341.031 938.744 341.678C939.373 342.316 940.18 342.635 941.164 342.635C941.93 342.635 942.563 342.452 943.064 342.088C943.557 341.723 944.117 341.049 944.746 340.064L947.344 341.514C946.943 342.197 946.519 342.785 946.072 343.277C945.626 343.76 945.147 344.161 944.637 344.48C944.126 344.79 943.575 345.018 942.982 345.164C942.39 345.31 941.747 345.383 941.055 345.383C939.068 345.383 937.473 344.745 936.27 343.469C935.066 342.184 934.465 340.479 934.465 338.355C934.465 336.25 935.048 334.546 936.215 333.242C937.391 331.957 938.949 331.314 940.891 331.314C942.85 331.314 944.4 331.939 945.539 333.188C946.669 334.427 947.234 336.145 947.234 338.342L947.221 339.066ZM944.062 336.551C943.634 334.91 942.6 334.09 940.959 334.09C940.585 334.09 940.234 334.149 939.906 334.268C939.578 334.377 939.277 334.541 939.004 334.76C938.74 334.969 938.512 335.225 938.32 335.525C938.129 335.826 937.983 336.168 937.883 336.551H944.062ZM953.674 321.908V345H950.598V321.908H953.674Z" fill="white"/>
<path d="M1094.46 391.536C1096.42 393.488 1099.58 393.488 1101.54 391.536L1133.36 359.716C1135.31 357.763 1135.31 354.597 1133.36 352.645C1131.4 350.692 1128.24 350.692 1126.28 352.645L1098 380.929L1069.72 352.645C1067.76 350.692 1064.6 350.692 1062.64 352.645C1060.69 354.597 1060.69 357.763 1062.64 359.716L1094.46 391.536ZM1093 197L1093 388L1103 388L1103 197L1093 197Z" fill="black"/>
<rect x="1029" y="247" width="137" height="54" rx="5" fill="#22ACCA"/>
<path d="M1060.31 271.684H1063.39V272.914C1063.98 272.294 1064.49 271.875 1064.91 271.656C1065.35 271.428 1065.91 271.314 1066.59 271.314C1068.09 271.314 1069.28 271.971 1070.16 273.283C1071.12 271.971 1072.43 271.314 1074.08 271.314C1077.08 271.314 1078.58 273.133 1078.58 276.77V285H1075.49V277.604C1075.49 276.327 1075.33 275.425 1075.02 274.896C1074.7 274.359 1074.18 274.09 1073.45 274.09C1072.6 274.09 1071.98 274.409 1071.59 275.047C1071.21 275.685 1071.02 276.71 1071.02 278.123V285H1067.93V277.645C1067.93 275.275 1067.24 274.09 1065.88 274.09C1065.01 274.09 1064.38 274.413 1063.98 275.061C1063.58 275.708 1063.39 276.729 1063.39 278.123V285H1060.31V271.684ZM1081.83 278.246C1081.83 276.323 1082.52 274.687 1083.9 273.338C1085.27 271.989 1086.95 271.314 1088.93 271.314C1090.91 271.314 1092.6 271.993 1093.99 273.352C1095.35 274.71 1096.04 276.378 1096.04 278.355C1096.04 280.352 1095.35 282.024 1093.97 283.373C1092.59 284.713 1090.89 285.383 1088.87 285.383C1086.88 285.383 1085.2 284.699 1083.86 283.332C1082.51 281.983 1081.83 280.288 1081.83 278.246ZM1084.98 278.301C1084.98 279.632 1085.33 280.684 1086.04 281.459C1086.77 282.243 1087.73 282.635 1088.93 282.635C1090.13 282.635 1091.09 282.247 1091.81 281.473C1092.53 280.698 1092.89 279.663 1092.89 278.369C1092.89 277.075 1092.53 276.04 1091.81 275.266C1091.08 274.482 1090.12 274.09 1088.93 274.09C1087.75 274.09 1086.8 274.482 1086.07 275.266C1085.34 276.049 1084.98 277.061 1084.98 278.301ZM1109.12 261.908H1112.21V285H1109.12V283.605C1107.91 284.79 1106.54 285.383 1105.01 285.383C1103.18 285.383 1101.67 284.717 1100.47 283.387C1099.27 282.029 1098.68 280.333 1098.68 278.301C1098.68 276.314 1099.27 274.655 1100.47 273.324C1101.65 271.984 1103.14 271.314 1104.94 271.314C1106.5 271.314 1107.89 271.952 1109.12 273.229V261.908ZM1101.82 278.301C1101.82 279.577 1102.16 280.616 1102.85 281.418C1103.55 282.229 1104.43 282.635 1105.5 282.635C1106.64 282.635 1107.56 282.243 1108.26 281.459C1108.96 280.648 1109.31 279.618 1109.31 278.369C1109.31 277.12 1108.96 276.09 1108.26 275.279C1107.56 274.486 1106.65 274.09 1105.53 274.09C1104.47 274.09 1103.58 274.491 1102.87 275.293C1102.17 276.104 1101.82 277.107 1101.82 278.301ZM1128.22 279.066H1118.68C1118.76 280.16 1119.12 281.031 1119.74 281.678C1120.37 282.316 1121.18 282.635 1122.16 282.635C1122.93 282.635 1123.56 282.452 1124.06 282.088C1124.56 281.723 1125.12 281.049 1125.75 280.064L1128.34 281.514C1127.94 282.197 1127.52 282.785 1127.07 283.277C1126.63 283.76 1126.15 284.161 1125.64 284.48C1125.13 284.79 1124.57 285.018 1123.98 285.164C1123.39 285.31 1122.75 285.383 1122.05 285.383C1120.07 285.383 1118.47 284.745 1117.27 283.469C1116.07 282.184 1115.46 280.479 1115.46 278.355C1115.46 276.25 1116.05 274.546 1117.21 273.242C1118.39 271.957 1119.95 271.314 1121.89 271.314C1123.85 271.314 1125.4 271.939 1126.54 273.188C1127.67 274.427 1128.23 276.145 1128.23 278.342L1128.22 279.066ZM1125.06 276.551C1124.63 274.91 1123.6 274.09 1121.96 274.09C1121.59 274.09 1121.23 274.149 1120.91 274.268C1120.58 274.377 1120.28 274.541 1120 274.76C1119.74 274.969 1119.51 275.225 1119.32 275.525C1119.13 275.826 1118.98 276.168 1118.88 276.551H1125.06ZM1134.67 261.908V285H1131.6V261.908H1134.67Z" fill="white"/>
<rect x="1029" y="307" width="137" height="54" rx="5" fill="#F8C33B"/>
<path d="M1083.66 332.258V336.346C1082.96 335.489 1082.33 334.901 1081.78 334.582C1081.23 334.254 1080.59 334.09 1079.85 334.09C1078.69 334.09 1077.73 334.495 1076.96 335.307C1076.2 336.118 1075.82 337.134 1075.82 338.355C1075.82 339.604 1076.19 340.63 1076.92 341.432C1077.67 342.234 1078.62 342.635 1079.78 342.635C1080.52 342.635 1081.17 342.475 1081.74 342.156C1082.28 341.846 1082.93 341.245 1083.66 340.352V344.412C1082.42 345.059 1081.17 345.383 1079.92 345.383C1077.86 345.383 1076.14 344.717 1074.75 343.387C1073.36 342.047 1072.67 340.383 1072.67 338.396C1072.67 336.41 1073.37 334.732 1074.78 333.365C1076.18 331.998 1077.9 331.314 1079.95 331.314C1081.26 331.314 1082.5 331.629 1083.66 332.258ZM1086.64 331.684H1089.72V332.914C1090.31 332.294 1090.82 331.875 1091.24 331.656C1091.68 331.428 1092.25 331.314 1092.92 331.314C1094.42 331.314 1095.61 331.971 1096.49 333.283C1097.45 331.971 1098.76 331.314 1100.41 331.314C1103.41 331.314 1104.91 333.133 1104.91 336.77V345H1101.82V337.604C1101.82 336.327 1101.67 335.425 1101.36 334.896C1101.04 334.359 1100.51 334.09 1099.78 334.09C1098.94 334.09 1098.32 334.409 1097.92 335.047C1097.54 335.685 1097.35 336.71 1097.35 338.123V345H1094.26V337.645C1094.26 335.275 1093.58 334.09 1092.21 334.09C1091.34 334.09 1090.71 334.413 1090.31 335.061C1089.92 335.708 1089.72 336.729 1089.72 338.123V345H1086.64V331.684ZM1118.61 321.908H1121.7V345H1118.61V343.605C1117.4 344.79 1116.03 345.383 1114.49 345.383C1112.67 345.383 1111.16 344.717 1109.96 343.387C1108.76 342.029 1108.16 340.333 1108.16 338.301C1108.16 336.314 1108.76 334.655 1109.96 333.324C1111.14 331.984 1112.63 331.314 1114.43 331.314C1115.98 331.314 1117.38 331.952 1118.61 333.229V321.908ZM1111.31 338.301C1111.31 339.577 1111.65 340.616 1112.33 341.418C1113.04 342.229 1113.92 342.635 1114.99 342.635C1116.13 342.635 1117.05 342.243 1117.75 341.459C1118.45 340.648 1118.8 339.618 1118.8 338.369C1118.8 337.12 1118.45 336.09 1117.75 335.279C1117.05 334.486 1116.13 334.09 1115.01 334.09C1113.96 334.09 1113.07 334.491 1112.36 335.293C1111.66 336.104 1111.31 337.107 1111.31 338.301Z" fill="white"/>
<path d="M1196.44 314V291.455L1211.83 307.561V292.891H1215.02V315.285L1199.62 299.221V314H1196.44ZM1231.74 295.885H1223.28V300.957H1231.49V303.951H1223.28V311.006H1231.74V314H1220.09V292.891H1231.74V295.885ZM1236.96 292.891L1242.46 307L1248.2 291.865L1253.7 307L1259.54 292.891H1262.99L1253.56 315.34L1248.13 300.383L1242.47 315.354L1233.5 292.891H1236.96Z" fill="#FF4040"/>
<path d="M1094.46 725.536C1096.42 727.488 1099.58 727.488 1101.54 725.536L1133.36 693.716C1135.31 691.763 1135.31 688.597 1133.36 686.645C1131.4 684.692 1128.24 684.692 1126.28 686.645L1098 714.929L1069.72 686.645C1067.76 684.692 1064.6 684.692 1062.64 686.645C1060.69 688.597 1060.69 691.763 1062.64 693.716L1094.46 725.536ZM1093 531L1093 722L1103 722L1103 531L1093 531Z" fill="black"/>
<rect x="1029" y="608" width="137" height="54" rx="5" fill="#22ACCA"/>
<path d="M1060.31 632.684H1063.39V633.914C1063.98 633.294 1064.49 632.875 1064.91 632.656C1065.35 632.428 1065.91 632.314 1066.59 632.314C1068.09 632.314 1069.28 632.971 1070.16 634.283C1071.12 632.971 1072.43 632.314 1074.08 632.314C1077.08 632.314 1078.58 634.133 1078.58 637.77V646H1075.49V638.604C1075.49 637.327 1075.33 636.425 1075.02 635.896C1074.7 635.359 1074.18 635.09 1073.45 635.09C1072.6 635.09 1071.98 635.409 1071.59 636.047C1071.21 636.685 1071.02 637.71 1071.02 639.123V646H1067.93V638.645C1067.93 636.275 1067.24 635.09 1065.88 635.09C1065.01 635.09 1064.38 635.413 1063.98 636.061C1063.58 636.708 1063.39 637.729 1063.39 639.123V646H1060.31V632.684ZM1081.83 639.246C1081.83 637.323 1082.52 635.687 1083.9 634.338C1085.27 632.989 1086.95 632.314 1088.93 632.314C1090.91 632.314 1092.6 632.993 1093.99 634.352C1095.35 635.71 1096.04 637.378 1096.04 639.355C1096.04 641.352 1095.35 643.024 1093.97 644.373C1092.59 645.713 1090.89 646.383 1088.87 646.383C1086.88 646.383 1085.2 645.699 1083.86 644.332C1082.51 642.983 1081.83 641.288 1081.83 639.246ZM1084.98 639.301C1084.98 640.632 1085.33 641.684 1086.04 642.459C1086.77 643.243 1087.73 643.635 1088.93 643.635C1090.13 643.635 1091.09 643.247 1091.81 642.473C1092.53 641.698 1092.89 640.663 1092.89 639.369C1092.89 638.075 1092.53 637.04 1091.81 636.266C1091.08 635.482 1090.12 635.09 1088.93 635.09C1087.75 635.09 1086.8 635.482 1086.07 636.266C1085.34 637.049 1084.98 638.061 1084.98 639.301ZM1109.12 622.908H1112.21V646H1109.12V644.605C1107.91 645.79 1106.54 646.383 1105.01 646.383C1103.18 646.383 1101.67 645.717 1100.47 644.387C1099.27 643.029 1098.68 641.333 1098.68 639.301C1098.68 637.314 1099.27 635.655 1100.47 634.324C1101.65 632.984 1103.14 632.314 1104.94 632.314C1106.5 632.314 1107.89 632.952 1109.12 634.229V622.908ZM1101.82 639.301C1101.82 640.577 1102.16 641.616 1102.85 642.418C1103.55 643.229 1104.43 643.635 1105.5 643.635C1106.64 643.635 1107.56 643.243 1108.26 642.459C1108.96 641.648 1109.31 640.618 1109.31 639.369C1109.31 638.12 1108.96 637.09 1108.26 636.279C1107.56 635.486 1106.65 635.09 1105.53 635.09C1104.47 635.09 1103.58 635.491 1102.87 636.293C1102.17 637.104 1101.82 638.107 1101.82 639.301ZM1128.22 640.066H1118.68C1118.76 641.16 1119.12 642.031 1119.74 642.678C1120.37 643.316 1121.18 643.635 1122.16 643.635C1122.93 643.635 1123.56 643.452 1124.06 643.088C1124.56 642.723 1125.12 642.049 1125.75 641.064L1128.34 642.514C1127.94 643.197 1127.52 643.785 1127.07 644.277C1126.63 644.76 1126.15 645.161 1125.64 645.48C1125.13 645.79 1124.57 646.018 1123.98 646.164C1123.39 646.31 1122.75 646.383 1122.05 646.383C1120.07 646.383 1118.47 645.745 1117.27 644.469C1116.07 643.184 1115.46 641.479 1115.46 639.355C1115.46 637.25 1116.05 635.546 1117.21 634.242C1118.39 632.957 1119.95 632.314 1121.89 632.314C1123.85 632.314 1125.4 632.939 1126.54 634.188C1127.67 635.427 1128.23 637.145 1128.23 639.342L1128.22 640.066ZM1125.06 637.551C1124.63 635.91 1123.6 635.09 1121.96 635.09C1121.59 635.09 1121.23 635.149 1120.91 635.268C1120.58 635.377 1120.28 635.541 1120 635.76C1119.74 635.969 1119.51 636.225 1119.32 636.525C1119.13 636.826 1118.98 637.168 1118.88 637.551H1125.06ZM1134.67 622.908V646H1131.6V622.908H1134.67Z" fill="white"/>
<path d="M934.536 530.464C932.583 528.512 929.417 528.512 927.464 530.464L895.645 562.284C893.692 564.237 893.692 567.403 895.645 569.355C897.597 571.308 900.763 571.308 902.716 569.355L931 541.071L959.284 569.355C961.237 571.308 964.403 571.308 966.355 569.355C968.308 567.403 968.308 564.237 966.355 562.284L934.536 530.464ZM936 725L936 534L926 534L926 725L936 725Z" fill="black"/>
<rect x="862" y="611" width="137" height="54" rx="5" fill="#CA2268"/>
<path d="M906.369 625.908H909.445V636.791C910.539 635.807 911.747 635.314 913.068 635.314C914.572 635.314 915.775 635.802 916.678 636.777C917.443 637.625 917.826 638.979 917.826 640.838V649H914.75V641.125C914.75 640.059 914.559 639.288 914.176 638.814C913.802 638.331 913.196 638.09 912.357 638.09C911.282 638.09 910.525 638.423 910.088 639.088C909.66 639.762 909.445 640.92 909.445 642.561V649H906.369V625.908ZM924.908 638.555V649H921.832V638.555H920.52V635.684H921.832V630.803H924.908V635.684H927.301V638.555H924.908ZM929.393 635.684H932.469V636.914C933.061 636.294 933.567 635.875 933.986 635.656C934.433 635.428 934.993 635.314 935.668 635.314C937.172 635.314 938.361 635.971 939.236 637.283C940.202 635.971 941.51 635.314 943.16 635.314C946.159 635.314 947.658 637.133 947.658 640.77V649H944.568V641.604C944.568 640.327 944.413 639.425 944.104 638.896C943.785 638.359 943.26 638.09 942.531 638.09C941.684 638.09 941.064 638.409 940.672 639.047C940.289 639.685 940.098 640.71 940.098 642.123V649H937.008V641.645C937.008 639.275 936.324 638.09 934.957 638.09C934.091 638.09 933.458 638.413 933.057 639.061C932.665 639.708 932.469 640.729 932.469 642.123V649H929.393V635.684ZM954.617 625.908V649H951.541V625.908H954.617Z" fill="white"/>
<path d="M436.464 509.464C434.512 511.417 434.512 514.583 436.464 516.536L468.284 548.355C470.237 550.308 473.403 550.308 475.355 548.355C477.308 546.403 477.308 543.237 475.355 541.284L447.071 513L475.355 484.716C477.308 482.763 477.308 479.597 475.355 477.645C473.403 475.692 470.237 475.692 468.284 477.645L436.464 509.464ZM749 508L440 508L440 518L749 518L749 508Z" fill="black"/>
<rect x="526" y="485" width="137" height="54" rx="5" fill="#C4C4C4"/>
<path d="M560.881 523V501.891H565.311C567.434 501.891 569.111 502.1 570.342 502.52C571.663 502.93 572.862 503.627 573.938 504.611C576.116 506.598 577.205 509.21 577.205 512.445C577.205 515.69 576.07 518.315 573.801 520.32C572.661 521.323 571.467 522.02 570.219 522.412C569.052 522.804 567.398 523 565.256 523H560.881ZM564.066 520.006H565.502C566.933 520.006 568.122 519.855 569.07 519.555C570.018 519.236 570.875 518.73 571.641 518.037C573.208 516.606 573.992 514.742 573.992 512.445C573.992 510.13 573.217 508.253 571.668 506.812C570.273 505.527 568.218 504.885 565.502 504.885H564.066V520.006ZM580.172 512.35C580.172 509.378 581.261 506.826 583.439 504.693C585.609 502.561 588.215 501.494 591.26 501.494C594.268 501.494 596.847 502.57 598.998 504.721C601.158 506.872 602.238 509.456 602.238 512.473C602.238 515.508 601.154 518.083 598.984 520.197C596.806 522.321 594.176 523.383 591.096 523.383C588.37 523.383 585.923 522.439 583.754 520.553C581.366 518.465 580.172 515.731 580.172 512.35ZM583.385 512.391C583.385 514.724 584.169 516.643 585.736 518.146C587.295 519.65 589.095 520.402 591.137 520.402C593.352 520.402 595.22 519.637 596.742 518.105C598.264 516.556 599.025 514.669 599.025 512.445C599.025 510.194 598.273 508.307 596.77 506.785C595.275 505.254 593.424 504.488 591.219 504.488C589.022 504.488 587.167 505.254 585.654 506.785C584.141 508.298 583.385 510.167 583.385 512.391ZM605.506 523L609.949 500.305L617.195 516.711L624.701 500.305L628.693 523H625.426L623.389 510.258L617.141 523.971L611.07 510.244L608.801 523H605.506Z" fill="white"/>
</svg>
