<svg width="1543" height="969" viewBox="0 0 1543 969" fill="none" xmlns="http://www.w3.org/2000/svg">
<rect width="1543" height="969" fill="white"/>
<rect x="120" y="411" width="273" height="106" fill="#C4C4C4"/>
<path d="M207.965 475V453.891H211.137C212.549 453.891 213.675 454 214.514 454.219C215.361 454.438 216.077 454.807 216.66 455.326C217.253 455.864 217.722 456.534 218.068 457.336C218.424 458.147 218.602 458.967 218.602 459.797C218.602 461.31 218.023 462.59 216.865 463.639C217.986 464.021 218.87 464.691 219.518 465.648C220.174 466.596 220.502 467.699 220.502 468.957C220.502 470.607 219.919 472.001 218.752 473.141C218.05 473.842 217.262 474.33 216.387 474.604C215.43 474.868 214.231 475 212.791 475H207.965ZM211.15 462.955H212.148C213.333 462.955 214.199 462.695 214.746 462.176C215.302 461.647 215.58 460.872 215.58 459.852C215.58 458.858 215.298 458.106 214.732 457.596C214.167 457.076 213.347 456.816 212.271 456.816H211.15V462.955ZM211.15 472.006H213.119C214.559 472.006 215.617 471.723 216.291 471.158C217.002 470.548 217.357 469.773 217.357 468.834C217.357 467.923 217.016 467.157 216.332 466.537C215.667 465.926 214.477 465.621 212.764 465.621H211.15V472.006ZM223.947 461.684H227.023V462.873C227.589 462.281 228.09 461.875 228.527 461.656C228.974 461.428 229.503 461.314 230.113 461.314C230.924 461.314 231.772 461.579 232.656 462.107L231.248 464.924C230.665 464.505 230.095 464.295 229.539 464.295C227.862 464.295 227.023 465.562 227.023 468.096V475H223.947V461.684ZM233.545 468.246C233.545 466.323 234.233 464.687 235.609 463.338C236.986 461.989 238.663 461.314 240.641 461.314C242.628 461.314 244.314 461.993 245.699 463.352C247.066 464.71 247.75 466.378 247.75 468.355C247.75 470.352 247.062 472.024 245.686 473.373C244.3 474.713 242.6 475.383 240.586 475.383C238.59 475.383 236.917 474.699 235.568 473.332C234.219 471.983 233.545 470.288 233.545 468.246ZM236.689 468.301C236.689 469.632 237.045 470.684 237.756 471.459C238.485 472.243 239.447 472.635 240.641 472.635C241.844 472.635 242.805 472.247 243.525 471.473C244.245 470.698 244.605 469.663 244.605 468.369C244.605 467.075 244.245 466.04 243.525 465.266C242.796 464.482 241.835 464.09 240.641 464.09C239.465 464.09 238.512 464.482 237.783 465.266C237.054 466.049 236.689 467.061 236.689 468.301ZM252.139 461.684L255.625 469.285L259.385 460.467L263.172 469.285L266.617 461.684H270.062L263.09 475.998L259.385 467.426L255.639 475.998L248.68 461.684H252.139ZM279.893 463.953L277.35 465.307C276.949 464.486 276.452 464.076 275.859 464.076C275.577 464.076 275.335 464.172 275.135 464.363C274.934 464.546 274.834 464.783 274.834 465.074C274.834 465.585 275.426 466.09 276.611 466.592C278.243 467.294 279.341 467.941 279.906 468.533C280.471 469.126 280.754 469.923 280.754 470.926C280.754 472.211 280.28 473.286 279.332 474.152C278.411 474.973 277.299 475.383 275.996 475.383C273.763 475.383 272.182 474.294 271.252 472.115L273.877 470.898C274.242 471.536 274.52 471.942 274.711 472.115C275.085 472.462 275.531 472.635 276.051 472.635C277.09 472.635 277.609 472.161 277.609 471.213C277.609 470.666 277.208 470.156 276.406 469.682C276.096 469.527 275.786 469.376 275.477 469.23C275.167 469.085 274.852 468.934 274.533 468.779C273.64 468.342 273.011 467.904 272.646 467.467C272.182 466.911 271.949 466.195 271.949 465.32C271.949 464.163 272.346 463.206 273.139 462.449C273.95 461.693 274.934 461.314 276.092 461.314C277.796 461.314 279.063 462.194 279.893 463.953ZM295.656 469.066H286.113C286.195 470.16 286.551 471.031 287.18 471.678C287.809 472.316 288.615 472.635 289.6 472.635C290.365 472.635 290.999 472.452 291.5 472.088C291.992 471.723 292.553 471.049 293.182 470.064L295.779 471.514C295.378 472.197 294.954 472.785 294.508 473.277C294.061 473.76 293.583 474.161 293.072 474.48C292.562 474.79 292.01 475.018 291.418 475.164C290.826 475.31 290.183 475.383 289.49 475.383C287.503 475.383 285.908 474.745 284.705 473.469C283.502 472.184 282.9 470.479 282.9 468.355C282.9 466.25 283.484 464.546 284.65 463.242C285.826 461.957 287.385 461.314 289.326 461.314C291.286 461.314 292.835 461.939 293.975 463.188C295.105 464.427 295.67 466.145 295.67 468.342L295.656 469.066ZM292.498 466.551C292.07 464.91 291.035 464.09 289.395 464.09C289.021 464.09 288.67 464.149 288.342 464.268C288.014 464.377 287.713 464.541 287.439 464.76C287.175 464.969 286.947 465.225 286.756 465.525C286.564 465.826 286.419 466.168 286.318 466.551H292.498ZM299.033 461.684H302.109V462.873C302.674 462.281 303.176 461.875 303.613 461.656C304.06 461.428 304.589 461.314 305.199 461.314C306.01 461.314 306.858 461.579 307.742 462.107L306.334 464.924C305.751 464.505 305.181 464.295 304.625 464.295C302.948 464.295 302.109 465.562 302.109 468.096V475H299.033V461.684Z" fill="black"/>
<rect x="788" y="411" width="422" height="106" fill="#8BDFC1"/>
<path d="M862.178 456.885H853.715V461.957H861.932V464.951H853.715V472.006H862.178V475H850.529V453.891H862.178V456.885ZM868.85 451.908V475H865.773V451.908H868.85ZM872.746 461.684H875.822V462.914C876.415 462.294 876.921 461.875 877.34 461.656C877.786 461.428 878.347 461.314 879.021 461.314C880.525 461.314 881.715 461.971 882.59 463.283C883.556 461.971 884.864 461.314 886.514 461.314C889.512 461.314 891.012 463.133 891.012 466.77V475H887.922V467.604C887.922 466.327 887.767 465.425 887.457 464.896C887.138 464.359 886.614 464.09 885.885 464.09C885.037 464.09 884.417 464.409 884.025 465.047C883.643 465.685 883.451 466.71 883.451 468.123V475H880.361V467.645C880.361 465.275 879.678 464.09 878.311 464.09C877.445 464.09 876.811 464.413 876.41 465.061C876.018 465.708 875.822 466.729 875.822 468.123V475H872.746V461.684ZM911.273 466.004L917.809 475H913.912L907.883 466.359H907.309V475H904.123V453.891H907.855C910.645 453.891 912.659 454.415 913.898 455.463C915.266 456.63 915.949 458.17 915.949 460.084C915.949 461.579 915.521 462.864 914.664 463.939C913.807 465.015 912.677 465.703 911.273 466.004ZM907.309 463.584H908.32C911.337 463.584 912.846 462.431 912.846 460.125C912.846 457.965 911.378 456.885 908.443 456.885H907.309V463.584ZM923.045 461.684V469.326C923.045 471.532 923.915 472.635 925.656 472.635C927.397 472.635 928.268 471.532 928.268 469.326V461.684H931.344V469.395C931.344 470.461 931.212 471.382 930.947 472.156C930.692 472.849 930.25 473.473 929.621 474.029C928.582 474.932 927.26 475.383 925.656 475.383C924.061 475.383 922.744 474.932 921.705 474.029C921.067 473.473 920.616 472.849 920.352 472.156C920.096 471.536 919.969 470.616 919.969 469.395V461.684H923.045ZM935.227 461.684H938.316V462.914C939.392 461.848 940.604 461.314 941.953 461.314C943.503 461.314 944.71 461.802 945.576 462.777C946.324 463.607 946.697 464.96 946.697 466.838V475H943.607V467.562C943.607 466.25 943.425 465.343 943.061 464.842C942.705 464.331 942.058 464.076 941.119 464.076C940.098 464.076 939.374 464.413 938.945 465.088C938.526 465.753 938.316 466.915 938.316 468.574V475H935.227V461.684ZM953.766 464.555V475H950.689V464.555H949.377V461.684H950.689V456.803H953.766V461.684H956.158V464.555H953.766ZM961.326 461.684V475H958.25V461.684H961.326ZM957.785 456.146C957.785 455.609 957.981 455.144 958.373 454.752C958.765 454.36 959.234 454.164 959.781 454.164C960.337 454.164 960.811 454.36 961.203 454.752C961.595 455.135 961.791 455.604 961.791 456.16C961.791 456.716 961.595 457.19 961.203 457.582C960.82 457.974 960.351 458.17 959.795 458.17C959.239 458.17 958.765 457.974 958.373 457.582C957.981 457.19 957.785 456.712 957.785 456.146ZM965.223 461.684H968.299V462.914C968.891 462.294 969.397 461.875 969.816 461.656C970.263 461.428 970.824 461.314 971.498 461.314C973.002 461.314 974.191 461.971 975.066 463.283C976.033 461.971 977.34 461.314 978.99 461.314C981.989 461.314 983.488 463.133 983.488 466.77V475H980.398V467.604C980.398 466.327 980.243 465.425 979.934 464.896C979.615 464.359 979.09 464.09 978.361 464.09C977.514 464.09 976.894 464.409 976.502 465.047C976.119 465.685 975.928 466.71 975.928 468.123V475H972.838V467.645C972.838 465.275 972.154 464.09 970.787 464.09C969.921 464.09 969.288 464.413 968.887 465.061C968.495 465.708 968.299 466.729 968.299 468.123V475H965.223V461.684ZM999.498 469.066H989.955C990.037 470.16 990.393 471.031 991.021 471.678C991.65 472.316 992.457 472.635 993.441 472.635C994.207 472.635 994.84 472.452 995.342 472.088C995.834 471.723 996.395 471.049 997.023 470.064L999.621 471.514C999.22 472.197 998.796 472.785 998.35 473.277C997.903 473.76 997.424 474.161 996.914 474.48C996.404 474.79 995.852 475.018 995.26 475.164C994.667 475.31 994.025 475.383 993.332 475.383C991.345 475.383 989.75 474.745 988.547 473.469C987.344 472.184 986.742 470.479 986.742 468.355C986.742 466.25 987.326 464.546 988.492 463.242C989.668 461.957 991.227 461.314 993.168 461.314C995.128 461.314 996.677 461.939 997.816 463.188C998.947 464.427 999.512 466.145 999.512 468.342L999.498 469.066ZM996.34 466.551C995.911 464.91 994.877 464.09 993.236 464.09C992.863 464.09 992.512 464.149 992.184 464.268C991.855 464.377 991.555 464.541 991.281 464.76C991.017 464.969 990.789 465.225 990.598 465.525C990.406 465.826 990.26 466.168 990.16 466.551H996.34Z" fill="black"/>
<rect x="862" y="67" width="273" height="106" fill="#E4DC8C"/>
<path d="M956.869 109.891V122.605C956.869 124.419 957.165 125.745 957.758 126.584C958.642 127.796 959.886 128.402 961.49 128.402C963.104 128.402 964.352 127.796 965.236 126.584C965.829 125.773 966.125 124.447 966.125 122.605V109.891H969.311V123.48C969.311 125.704 968.618 127.536 967.232 128.977C965.674 130.581 963.76 131.383 961.49 131.383C959.221 131.383 957.311 130.581 955.762 128.977C954.376 127.536 953.684 125.704 953.684 123.48V109.891H956.869ZM977.09 138.246H974.014V117.684H977.09V119.133C978.302 117.921 979.678 117.314 981.219 117.314C983.051 117.314 984.559 117.989 985.744 119.338C986.947 120.678 987.549 122.368 987.549 124.41C987.549 126.406 986.952 128.07 985.758 129.4C984.573 130.722 983.078 131.383 981.273 131.383C979.715 131.383 978.32 130.758 977.09 129.51V138.246ZM984.404 124.424C984.404 123.148 984.058 122.109 983.365 121.307C982.663 120.495 981.779 120.09 980.713 120.09C979.583 120.09 978.667 120.482 977.965 121.266C977.263 122.049 976.912 123.079 976.912 124.355C976.912 125.604 977.263 126.634 977.965 127.445C978.658 128.238 979.569 128.635 980.699 128.635C981.766 128.635 982.645 128.234 983.338 127.432C984.049 126.63 984.404 125.627 984.404 124.424ZM1000.62 107.908H1003.71V131H1000.62V129.605C999.407 130.79 998.035 131.383 996.504 131.383C994.681 131.383 993.168 130.717 991.965 129.387C990.771 128.029 990.174 126.333 990.174 124.301C990.174 122.314 990.771 120.655 991.965 119.324C993.15 117.984 994.64 117.314 996.436 117.314C997.994 117.314 999.389 117.952 1000.62 119.229V107.908ZM993.318 124.301C993.318 125.577 993.66 126.616 994.344 127.418C995.046 128.229 995.93 128.635 996.996 128.635C998.135 128.635 999.056 128.243 999.758 127.459C1000.46 126.648 1000.81 125.618 1000.81 124.369C1000.81 123.12 1000.46 122.09 999.758 121.279C999.056 120.486 998.145 120.09 997.023 120.09C995.966 120.09 995.082 120.491 994.371 121.293C993.669 122.104 993.318 123.107 993.318 124.301ZM1017.41 117.684H1020.5V131H1017.41V129.605C1016.14 130.79 1014.78 131.383 1013.32 131.383C1011.48 131.383 1009.96 130.717 1008.75 129.387C1007.56 128.029 1006.96 126.333 1006.96 124.301C1006.96 122.305 1007.56 120.641 1008.75 119.311C1009.95 117.98 1011.44 117.314 1013.24 117.314C1014.79 117.314 1016.18 117.952 1017.41 119.229V117.684ZM1010.11 124.301C1010.11 125.577 1010.45 126.616 1011.13 127.418C1011.83 128.229 1012.72 128.635 1013.79 128.635C1014.92 128.635 1015.85 128.243 1016.55 127.459C1017.25 126.648 1017.6 125.618 1017.6 124.369C1017.6 123.12 1017.25 122.09 1016.55 121.279C1015.85 120.486 1014.93 120.09 1013.81 120.09C1012.76 120.09 1011.87 120.491 1011.16 121.293C1010.46 122.104 1010.11 123.107 1010.11 124.301ZM1027.55 120.555V131H1024.48V120.555H1023.16V117.684H1024.48V112.803H1027.55V117.684H1029.95V120.555H1027.55ZM1044.41 125.066H1034.87C1034.95 126.16 1035.3 127.031 1035.93 127.678C1036.56 128.316 1037.37 128.635 1038.35 128.635C1039.12 128.635 1039.75 128.452 1040.25 128.088C1040.75 127.723 1041.31 127.049 1041.94 126.064L1044.53 127.514C1044.13 128.197 1043.71 128.785 1043.26 129.277C1042.82 129.76 1042.34 130.161 1041.83 130.48C1041.32 130.79 1040.76 131.018 1040.17 131.164C1039.58 131.31 1038.94 131.383 1038.24 131.383C1036.26 131.383 1034.66 130.745 1033.46 129.469C1032.26 128.184 1031.65 126.479 1031.65 124.355C1031.65 122.25 1032.24 120.546 1033.4 119.242C1034.58 117.957 1036.14 117.314 1038.08 117.314C1040.04 117.314 1041.59 117.939 1042.73 119.188C1043.86 120.427 1044.42 122.145 1044.42 124.342L1044.41 125.066ZM1041.25 122.551C1040.82 120.91 1039.79 120.09 1038.15 120.09C1037.77 120.09 1037.42 120.149 1037.1 120.268C1036.77 120.377 1036.47 120.541 1036.19 120.76C1035.93 120.969 1035.7 121.225 1035.51 121.525C1035.32 121.826 1035.17 122.168 1035.07 122.551H1041.25Z" fill="black"/>
<rect x="862" y="738" width="273" height="106" fill="#E4DC8C"/>
<path d="M970.623 780.891L976.461 795.52L982.381 780.891H985.867L976.393 803.586L967.137 780.891H970.623ZM991.268 788.684V802H988.191V788.684H991.268ZM987.727 783.146C987.727 782.609 987.923 782.144 988.314 781.752C988.706 781.36 989.176 781.164 989.723 781.164C990.279 781.164 990.753 781.36 991.145 781.752C991.536 782.135 991.732 782.604 991.732 783.16C991.732 783.716 991.536 784.19 991.145 784.582C990.762 784.974 990.292 785.17 989.736 785.17C989.18 785.17 988.706 784.974 988.314 784.582C987.923 784.19 987.727 783.712 987.727 783.146ZM1007.29 796.066H997.748C997.83 797.16 998.186 798.031 998.814 798.678C999.443 799.316 1000.25 799.635 1001.23 799.635C1002 799.635 1002.63 799.452 1003.13 799.088C1003.63 798.723 1004.19 798.049 1004.82 797.064L1007.41 798.514C1007.01 799.197 1006.59 799.785 1006.14 800.277C1005.7 800.76 1005.22 801.161 1004.71 801.48C1004.2 801.79 1003.65 802.018 1003.05 802.164C1002.46 802.31 1001.82 802.383 1001.12 802.383C999.138 802.383 997.543 801.745 996.34 800.469C995.137 799.184 994.535 797.479 994.535 795.355C994.535 793.25 995.118 791.546 996.285 790.242C997.461 788.957 999.02 788.314 1000.96 788.314C1002.92 788.314 1004.47 788.939 1005.61 790.188C1006.74 791.427 1007.3 793.145 1007.3 795.342L1007.29 796.066ZM1004.13 793.551C1003.7 791.91 1002.67 791.09 1001.03 791.09C1000.66 791.09 1000.3 791.149 999.977 791.268C999.648 791.377 999.348 791.541 999.074 791.76C998.81 791.969 998.582 792.225 998.391 792.525C998.199 792.826 998.053 793.168 997.953 793.551H1004.13ZM1011.9 788.684L1015.38 796.285L1019.14 787.467L1022.93 796.285L1026.38 788.684H1029.82L1022.85 802.998L1019.14 794.426L1015.4 802.998L1008.44 788.684H1011.9Z" fill="black"/>
<rect x="1029" y="437" width="137" height="54" rx="5" fill="#22ACCA"/>
<path d="M1060.31 461.684H1063.39V462.914C1063.98 462.294 1064.49 461.875 1064.91 461.656C1065.35 461.428 1065.91 461.314 1066.59 461.314C1068.09 461.314 1069.28 461.971 1070.16 463.283C1071.12 461.971 1072.43 461.314 1074.08 461.314C1077.08 461.314 1078.58 463.133 1078.58 466.77V475H1075.49V467.604C1075.49 466.327 1075.33 465.425 1075.02 464.896C1074.7 464.359 1074.18 464.09 1073.45 464.09C1072.6 464.09 1071.98 464.409 1071.59 465.047C1071.21 465.685 1071.02 466.71 1071.02 468.123V475H1067.93V467.645C1067.93 465.275 1067.24 464.09 1065.88 464.09C1065.01 464.09 1064.38 464.413 1063.98 465.061C1063.58 465.708 1063.39 466.729 1063.39 468.123V475H1060.31V461.684ZM1081.83 468.246C1081.83 466.323 1082.52 464.687 1083.9 463.338C1085.27 461.989 1086.95 461.314 1088.93 461.314C1090.91 461.314 1092.6 461.993 1093.99 463.352C1095.35 464.71 1096.04 466.378 1096.04 468.355C1096.04 470.352 1095.35 472.024 1093.97 473.373C1092.59 474.713 1090.89 475.383 1088.87 475.383C1086.88 475.383 1085.2 474.699 1083.86 473.332C1082.51 471.983 1081.83 470.288 1081.83 468.246ZM1084.98 468.301C1084.98 469.632 1085.33 470.684 1086.04 471.459C1086.77 472.243 1087.73 472.635 1088.93 472.635C1090.13 472.635 1091.09 472.247 1091.81 471.473C1092.53 470.698 1092.89 469.663 1092.89 468.369C1092.89 467.075 1092.53 466.04 1091.81 465.266C1091.08 464.482 1090.12 464.09 1088.93 464.09C1087.75 464.09 1086.8 464.482 1086.07 465.266C1085.34 466.049 1084.98 467.061 1084.98 468.301ZM1109.12 451.908H1112.21V475H1109.12V473.605C1107.91 474.79 1106.54 475.383 1105.01 475.383C1103.18 475.383 1101.67 474.717 1100.47 473.387C1099.27 472.029 1098.68 470.333 1098.68 468.301C1098.68 466.314 1099.27 464.655 1100.47 463.324C1101.65 461.984 1103.14 461.314 1104.94 461.314C1106.5 461.314 1107.89 461.952 1109.12 463.229V451.908ZM1101.82 468.301C1101.82 469.577 1102.16 470.616 1102.85 471.418C1103.55 472.229 1104.43 472.635 1105.5 472.635C1106.64 472.635 1107.56 472.243 1108.26 471.459C1108.96 470.648 1109.31 469.618 1109.31 468.369C1109.31 467.12 1108.96 466.09 1108.26 465.279C1107.56 464.486 1106.65 464.09 1105.53 464.09C1104.47 464.09 1103.58 464.491 1102.87 465.293C1102.17 466.104 1101.82 467.107 1101.82 468.301ZM1128.22 469.066H1118.68C1118.76 470.16 1119.12 471.031 1119.74 471.678C1120.37 472.316 1121.18 472.635 1122.16 472.635C1122.93 472.635 1123.56 472.452 1124.06 472.088C1124.56 471.723 1125.12 471.049 1125.75 470.064L1128.34 471.514C1127.94 472.197 1127.52 472.785 1127.07 473.277C1126.63 473.76 1126.15 474.161 1125.64 474.48C1125.13 474.79 1124.57 475.018 1123.98 475.164C1123.39 475.31 1122.75 475.383 1122.05 475.383C1120.07 475.383 1118.47 474.745 1117.27 473.469C1116.07 472.184 1115.46 470.479 1115.46 468.355C1115.46 466.25 1116.05 464.546 1117.21 463.242C1118.39 461.957 1119.95 461.314 1121.89 461.314C1123.85 461.314 1125.4 461.939 1126.54 463.188C1127.67 464.427 1128.23 466.145 1128.23 468.342L1128.22 469.066ZM1125.06 466.551C1124.63 464.91 1123.6 464.09 1121.96 464.09C1121.59 464.09 1121.23 464.149 1120.91 464.268C1120.58 464.377 1120.28 464.541 1120 464.76C1119.74 464.969 1119.51 465.225 1119.32 465.525C1119.13 465.826 1118.98 466.168 1118.88 466.551H1125.06ZM1134.67 451.908V475H1131.6V451.908H1134.67Z" fill="white"/>
<path d="M744.536 423.536C746.488 421.583 746.488 418.417 744.536 416.464L712.716 384.645C710.763 382.692 707.597 382.692 705.645 384.645C703.692 386.597 703.692 389.763 705.645 391.716L733.929 420L705.645 448.284C703.692 450.237 703.692 453.403 705.645 455.355C707.597 457.308 710.763 457.308 712.716 455.355L744.536 423.536ZM432 425H741V415H432V425Z" fill="black"/>
<rect x="518" y="392" width="137" height="54" rx="5" fill="#A822CA"/>
<path d="M563.299 416.684H566.375V417.914C566.967 417.294 567.473 416.875 567.893 416.656C568.339 416.428 568.9 416.314 569.574 416.314C571.078 416.314 572.268 416.971 573.143 418.283C574.109 416.971 575.417 416.314 577.066 416.314C580.065 416.314 581.564 418.133 581.564 421.77V430H578.475V422.604C578.475 421.327 578.32 420.425 578.01 419.896C577.691 419.359 577.167 419.09 576.438 419.09C575.59 419.09 574.97 419.409 574.578 420.047C574.195 420.685 574.004 421.71 574.004 423.123V430H570.914V422.645C570.914 420.275 570.23 419.09 568.863 419.09C567.997 419.09 567.364 419.413 566.963 420.061C566.571 420.708 566.375 421.729 566.375 423.123V430H563.299V416.684ZM593.186 418.953L590.643 420.307C590.242 419.486 589.745 419.076 589.152 419.076C588.87 419.076 588.628 419.172 588.428 419.363C588.227 419.546 588.127 419.783 588.127 420.074C588.127 420.585 588.719 421.09 589.904 421.592C591.536 422.294 592.634 422.941 593.199 423.533C593.764 424.126 594.047 424.923 594.047 425.926C594.047 427.211 593.573 428.286 592.625 429.152C591.704 429.973 590.592 430.383 589.289 430.383C587.056 430.383 585.475 429.294 584.545 427.115L587.17 425.898C587.535 426.536 587.812 426.942 588.004 427.115C588.378 427.462 588.824 427.635 589.344 427.635C590.383 427.635 590.902 427.161 590.902 426.213C590.902 425.666 590.501 425.156 589.699 424.682C589.389 424.527 589.079 424.376 588.77 424.23C588.46 424.085 588.145 423.934 587.826 423.779C586.933 423.342 586.304 422.904 585.939 422.467C585.475 421.911 585.242 421.195 585.242 420.32C585.242 419.163 585.639 418.206 586.432 417.449C587.243 416.693 588.227 416.314 589.385 416.314C591.089 416.314 592.356 417.194 593.186 418.953ZM609.701 429.686C609.701 430.314 609.678 430.866 609.633 431.34C609.596 431.823 609.542 432.247 609.469 432.611C609.25 433.614 608.822 434.475 608.184 435.195C606.98 436.581 605.326 437.273 603.221 437.273C601.443 437.273 599.98 436.795 598.832 435.838C597.647 434.854 596.964 433.491 596.781 431.75H599.871C599.99 432.406 600.186 432.912 600.459 433.268C601.097 434.097 602.027 434.512 603.248 434.512C605.499 434.512 606.625 433.131 606.625 430.369V428.51C605.404 429.758 603.995 430.383 602.4 430.383C600.587 430.383 599.101 429.727 597.943 428.414C596.777 427.083 596.193 425.42 596.193 423.424C596.193 421.482 596.736 419.833 597.82 418.475C598.987 417.035 600.527 416.314 602.441 416.314C604.118 416.314 605.513 416.939 606.625 418.188V416.684H609.701V429.686ZM606.748 423.369C606.748 422.075 606.402 421.04 605.709 420.266C605.007 419.473 604.109 419.076 603.016 419.076C601.849 419.076 600.928 419.509 600.254 420.375C599.643 421.15 599.338 422.152 599.338 423.383C599.338 424.595 599.643 425.589 600.254 426.363C600.919 427.211 601.84 427.635 603.016 427.635C604.191 427.635 605.121 427.206 605.805 426.35C606.434 425.575 606.748 424.581 606.748 423.369Z" fill="white"/>
<path d="M528.459 348.885H519.996V353.957H528.213V356.951H519.996V364.006H528.459V367H516.811V345.891H528.459V348.885ZM533.709 353.684L537.154 361.162L540.586 353.684H544.045L537.127 367.916L530.264 353.684H533.709ZM557.771 361.066H548.229C548.311 362.16 548.666 363.031 549.295 363.678C549.924 364.316 550.73 364.635 551.715 364.635C552.48 364.635 553.114 364.452 553.615 364.088C554.107 363.723 554.668 363.049 555.297 362.064L557.895 363.514C557.493 364.197 557.07 364.785 556.623 365.277C556.176 365.76 555.698 366.161 555.188 366.48C554.677 366.79 554.126 367.018 553.533 367.164C552.941 367.31 552.298 367.383 551.605 367.383C549.618 367.383 548.023 366.745 546.82 365.469C545.617 364.184 545.016 362.479 545.016 360.355C545.016 358.25 545.599 356.546 546.766 355.242C547.941 353.957 549.5 353.314 551.441 353.314C553.401 353.314 554.951 353.939 556.09 355.188C557.22 356.427 557.785 358.145 557.785 360.342L557.771 361.066ZM554.613 358.551C554.185 356.91 553.15 356.09 551.51 356.09C551.136 356.09 550.785 356.149 550.457 356.268C550.129 356.377 549.828 356.541 549.555 356.76C549.29 356.969 549.062 357.225 548.871 357.525C548.68 357.826 548.534 358.168 548.434 358.551H554.613ZM561.148 353.684H564.238V354.914C565.314 353.848 566.526 353.314 567.875 353.314C569.424 353.314 570.632 353.802 571.498 354.777C572.245 355.607 572.619 356.96 572.619 358.838V367H569.529V359.562C569.529 358.25 569.347 357.343 568.982 356.842C568.627 356.331 567.98 356.076 567.041 356.076C566.02 356.076 565.296 356.413 564.867 357.088C564.448 357.753 564.238 358.915 564.238 360.574V367H561.148V353.684ZM579.688 356.555V367H576.611V356.555H575.299V353.684H576.611V348.803H579.688V353.684H582.08V356.555H579.688ZM603.941 348.885H596.586V353.957H603.682V356.951H596.586V367H593.4V345.891H603.941V348.885ZM610.189 353.684V367H607.113V353.684H610.189ZM606.648 348.146C606.648 347.609 606.844 347.144 607.236 346.752C607.628 346.36 608.098 346.164 608.645 346.164C609.201 346.164 609.674 346.36 610.066 346.752C610.458 347.135 610.654 347.604 610.654 348.16C610.654 348.716 610.458 349.19 610.066 349.582C609.684 349.974 609.214 350.17 608.658 350.17C608.102 350.17 607.628 349.974 607.236 349.582C606.844 349.19 606.648 348.712 606.648 348.146ZM614.086 353.684H617.162V354.873C617.727 354.281 618.229 353.875 618.666 353.656C619.113 353.428 619.641 353.314 620.252 353.314C621.063 353.314 621.911 353.579 622.795 354.107L621.387 356.924C620.803 356.505 620.234 356.295 619.678 356.295C618.001 356.295 617.162 357.562 617.162 360.096V367H614.086V353.684ZM636.494 361.066H626.951C627.033 362.16 627.389 363.031 628.018 363.678C628.646 364.316 629.453 364.635 630.438 364.635C631.203 364.635 631.837 364.452 632.338 364.088C632.83 363.723 633.391 363.049 634.02 362.064L636.617 363.514C636.216 364.197 635.792 364.785 635.346 365.277C634.899 365.76 634.421 366.161 633.91 366.48C633.4 366.79 632.848 367.018 632.256 367.164C631.663 367.31 631.021 367.383 630.328 367.383C628.341 367.383 626.746 366.745 625.543 365.469C624.34 364.184 623.738 362.479 623.738 360.355C623.738 358.25 624.322 356.546 625.488 355.242C626.664 353.957 628.223 353.314 630.164 353.314C632.124 353.314 633.673 353.939 634.812 355.188C635.943 356.427 636.508 358.145 636.508 360.342L636.494 361.066ZM633.336 358.551C632.908 356.91 631.873 356.09 630.232 356.09C629.859 356.09 629.508 356.149 629.18 356.268C628.852 356.377 628.551 356.541 628.277 356.76C628.013 356.969 627.785 357.225 627.594 357.525C627.402 357.826 627.257 358.168 627.156 358.551H633.336ZM649.688 343.908H652.777V367H649.688V365.605C648.475 366.79 647.104 367.383 645.572 367.383C643.749 367.383 642.236 366.717 641.033 365.387C639.839 364.029 639.242 362.333 639.242 360.301C639.242 358.314 639.839 356.655 641.033 355.324C642.218 353.984 643.708 353.314 645.504 353.314C647.062 353.314 648.457 353.952 649.688 355.229V343.908ZM642.387 360.301C642.387 361.577 642.729 362.616 643.412 363.418C644.114 364.229 644.998 364.635 646.064 364.635C647.204 364.635 648.124 364.243 648.826 363.459C649.528 362.648 649.879 361.618 649.879 360.369C649.879 359.12 649.528 358.09 648.826 357.279C648.124 356.486 647.213 356.09 646.092 356.09C645.035 356.09 644.15 356.491 643.439 357.293C642.738 358.104 642.387 359.107 642.387 360.301Z" fill="black"/>
<path d="M432.464 509.464C430.512 511.417 430.512 514.583 432.464 516.536L464.284 548.355C466.237 550.308 469.403 550.308 471.355 548.355C473.308 546.403 473.308 543.237 471.355 541.284L443.071 513L471.355 484.716C473.308 482.763 473.308 479.597 471.355 477.645C469.403 475.692 466.237 475.692 464.284 477.645L432.464 509.464ZM745 508L436 508L436 518L745 518L745 508Z" fill="black"/>
<rect x="522" y="485" width="137" height="54" rx="5" fill="#C4C4C4"/>
<path d="M556.881 523V501.891H561.311C563.434 501.891 565.111 502.1 566.342 502.52C567.663 502.93 568.862 503.627 569.938 504.611C572.116 506.598 573.205 509.21 573.205 512.445C573.205 515.69 572.07 518.315 569.801 520.32C568.661 521.323 567.467 522.02 566.219 522.412C565.052 522.804 563.398 523 561.256 523H556.881ZM560.066 520.006H561.502C562.933 520.006 564.122 519.855 565.07 519.555C566.018 519.236 566.875 518.73 567.641 518.037C569.208 516.606 569.992 514.742 569.992 512.445C569.992 510.13 569.217 508.253 567.668 506.812C566.273 505.527 564.218 504.885 561.502 504.885H560.066V520.006ZM576.172 512.35C576.172 509.378 577.261 506.826 579.439 504.693C581.609 502.561 584.215 501.494 587.26 501.494C590.268 501.494 592.847 502.57 594.998 504.721C597.158 506.872 598.238 509.456 598.238 512.473C598.238 515.508 597.154 518.083 594.984 520.197C592.806 522.321 590.176 523.383 587.096 523.383C584.37 523.383 581.923 522.439 579.754 520.553C577.366 518.465 576.172 515.731 576.172 512.35ZM579.385 512.391C579.385 514.724 580.169 516.643 581.736 518.146C583.295 519.65 585.095 520.402 587.137 520.402C589.352 520.402 591.22 519.637 592.742 518.105C594.264 516.556 595.025 514.669 595.025 512.445C595.025 510.194 594.273 508.307 592.77 506.785C591.275 505.254 589.424 504.488 587.219 504.488C585.022 504.488 583.167 505.254 581.654 506.785C580.141 508.298 579.385 510.167 579.385 512.391ZM601.506 523L605.949 500.305L613.195 516.711L620.701 500.305L624.693 523H621.426L619.389 510.258L613.141 523.971L607.07 510.244L604.801 523H601.506Z" fill="white"/>
<path d="M920.536 193.464C918.583 191.512 915.417 191.512 913.464 193.464L881.645 225.284C879.692 227.237 879.692 230.403 881.645 232.355C883.597 234.308 886.763 234.308 888.716 232.355L917 204.071L945.284 232.355C947.237 234.308 950.403 234.308 952.355 232.355C954.308 230.403 954.308 227.237 952.355 225.284L920.536 193.464ZM922 388L922 197L912 197L912 388L922 388Z" fill="black"/>
<rect x="848" y="247" width="137" height="54" rx="5" fill="#A822CA"/>
<path d="M893.299 271.684H896.375V272.914C896.967 272.294 897.473 271.875 897.893 271.656C898.339 271.428 898.9 271.314 899.574 271.314C901.078 271.314 902.268 271.971 903.143 273.283C904.109 271.971 905.417 271.314 907.066 271.314C910.065 271.314 911.564 273.133 911.564 276.77V285H908.475V277.604C908.475 276.327 908.32 275.425 908.01 274.896C907.691 274.359 907.167 274.09 906.438 274.09C905.59 274.09 904.97 274.409 904.578 275.047C904.195 275.685 904.004 276.71 904.004 278.123V285H900.914V277.645C900.914 275.275 900.23 274.09 898.863 274.09C897.997 274.09 897.364 274.413 896.963 275.061C896.571 275.708 896.375 276.729 896.375 278.123V285H893.299V271.684ZM923.186 273.953L920.643 275.307C920.242 274.486 919.745 274.076 919.152 274.076C918.87 274.076 918.628 274.172 918.428 274.363C918.227 274.546 918.127 274.783 918.127 275.074C918.127 275.585 918.719 276.09 919.904 276.592C921.536 277.294 922.634 277.941 923.199 278.533C923.764 279.126 924.047 279.923 924.047 280.926C924.047 282.211 923.573 283.286 922.625 284.152C921.704 284.973 920.592 285.383 919.289 285.383C917.056 285.383 915.475 284.294 914.545 282.115L917.17 280.898C917.535 281.536 917.812 281.942 918.004 282.115C918.378 282.462 918.824 282.635 919.344 282.635C920.383 282.635 920.902 282.161 920.902 281.213C920.902 280.666 920.501 280.156 919.699 279.682C919.389 279.527 919.079 279.376 918.77 279.23C918.46 279.085 918.145 278.934 917.826 278.779C916.933 278.342 916.304 277.904 915.939 277.467C915.475 276.911 915.242 276.195 915.242 275.32C915.242 274.163 915.639 273.206 916.432 272.449C917.243 271.693 918.227 271.314 919.385 271.314C921.089 271.314 922.356 272.194 923.186 273.953ZM939.701 284.686C939.701 285.314 939.678 285.866 939.633 286.34C939.596 286.823 939.542 287.247 939.469 287.611C939.25 288.614 938.822 289.475 938.184 290.195C936.98 291.581 935.326 292.273 933.221 292.273C931.443 292.273 929.98 291.795 928.832 290.838C927.647 289.854 926.964 288.491 926.781 286.75H929.871C929.99 287.406 930.186 287.912 930.459 288.268C931.097 289.097 932.027 289.512 933.248 289.512C935.499 289.512 936.625 288.131 936.625 285.369V283.51C935.404 284.758 933.995 285.383 932.4 285.383C930.587 285.383 929.101 284.727 927.943 283.414C926.777 282.083 926.193 280.42 926.193 278.424C926.193 276.482 926.736 274.833 927.82 273.475C928.987 272.035 930.527 271.314 932.441 271.314C934.118 271.314 935.513 271.939 936.625 273.188V271.684H939.701V284.686ZM936.748 278.369C936.748 277.075 936.402 276.04 935.709 275.266C935.007 274.473 934.109 274.076 933.016 274.076C931.849 274.076 930.928 274.509 930.254 275.375C929.643 276.15 929.338 277.152 929.338 278.383C929.338 279.595 929.643 280.589 930.254 281.363C930.919 282.211 931.84 282.635 933.016 282.635C934.191 282.635 935.121 282.206 935.805 281.35C936.434 280.575 936.748 279.581 936.748 278.369Z" fill="white"/>
<rect x="848" y="307" width="137" height="54" rx="5" fill="#22ACCA"/>
<path d="M879.312 331.684H882.389V332.914C882.981 332.294 883.487 331.875 883.906 331.656C884.353 331.428 884.913 331.314 885.588 331.314C887.092 331.314 888.281 331.971 889.156 333.283C890.122 331.971 891.43 331.314 893.08 331.314C896.079 331.314 897.578 333.133 897.578 336.77V345H894.488V337.604C894.488 336.327 894.333 335.425 894.023 334.896C893.704 334.359 893.18 334.09 892.451 334.09C891.604 334.09 890.984 334.409 890.592 335.047C890.209 335.685 890.018 336.71 890.018 338.123V345H886.928V337.645C886.928 335.275 886.244 334.09 884.877 334.09C884.011 334.09 883.378 334.413 882.977 335.061C882.585 335.708 882.389 336.729 882.389 338.123V345H879.312V331.684ZM900.832 338.246C900.832 336.323 901.52 334.687 902.896 333.338C904.273 331.989 905.95 331.314 907.928 331.314C909.915 331.314 911.601 331.993 912.986 333.352C914.354 334.71 915.037 336.378 915.037 338.355C915.037 340.352 914.349 342.024 912.973 343.373C911.587 344.713 909.887 345.383 907.873 345.383C905.877 345.383 904.204 344.699 902.855 343.332C901.507 341.983 900.832 340.288 900.832 338.246ZM903.977 338.301C903.977 339.632 904.332 340.684 905.043 341.459C905.772 342.243 906.734 342.635 907.928 342.635C909.131 342.635 910.092 342.247 910.812 341.473C911.533 340.698 911.893 339.663 911.893 338.369C911.893 337.075 911.533 336.04 910.812 335.266C910.083 334.482 909.122 334.09 907.928 334.09C906.752 334.09 905.799 334.482 905.07 335.266C904.341 336.049 903.977 337.061 903.977 338.301ZM928.121 321.908H931.211V345H928.121V343.605C926.909 344.79 925.537 345.383 924.006 345.383C922.183 345.383 920.67 344.717 919.467 343.387C918.273 342.029 917.676 340.333 917.676 338.301C917.676 336.314 918.273 334.655 919.467 333.324C920.652 331.984 922.142 331.314 923.938 331.314C925.496 331.314 926.891 331.952 928.121 333.229V321.908ZM920.82 338.301C920.82 339.577 921.162 340.616 921.846 341.418C922.548 342.229 923.432 342.635 924.498 342.635C925.637 342.635 926.558 342.243 927.26 341.459C927.962 340.648 928.312 339.618 928.312 338.369C928.312 337.12 927.962 336.09 927.26 335.279C926.558 334.486 925.646 334.09 924.525 334.09C923.468 334.09 922.584 334.491 921.873 335.293C921.171 336.104 920.82 337.107 920.82 338.301ZM947.221 339.066H937.678C937.76 340.16 938.115 341.031 938.744 341.678C939.373 342.316 940.18 342.635 941.164 342.635C941.93 342.635 942.563 342.452 943.064 342.088C943.557 341.723 944.117 341.049 944.746 340.064L947.344 341.514C946.943 342.197 946.519 342.785 946.072 343.277C945.626 343.76 945.147 344.161 944.637 344.48C944.126 344.79 943.575 345.018 942.982 345.164C942.39 345.31 941.747 345.383 941.055 345.383C939.068 345.383 937.473 344.745 936.27 343.469C935.066 342.184 934.465 340.479 934.465 338.355C934.465 336.25 935.048 334.546 936.215 333.242C937.391 331.957 938.949 331.314 940.891 331.314C942.85 331.314 944.4 331.939 945.539 333.188C946.669 334.427 947.234 336.145 947.234 338.342L947.221 339.066ZM944.062 336.551C943.634 334.91 942.6 334.09 940.959 334.09C940.585 334.09 940.234 334.149 939.906 334.268C939.578 334.377 939.277 334.541 939.004 334.76C938.74 334.969 938.512 335.225 938.32 335.525C938.129 335.826 937.983 336.168 937.883 336.551H944.062ZM953.674 321.908V345H950.598V321.908H953.674Z" fill="white"/>
<path d="M1094.46 391.536C1096.42 393.488 1099.58 393.488 1101.54 391.536L1133.36 359.716C1135.31 357.763 1135.31 354.597 1133.36 352.645C1131.4 350.692 1128.24 350.692 1126.28 352.645L1098 380.929L1069.72 352.645C1067.76 350.692 1064.6 350.692 1062.64 352.645C1060.69 354.597 1060.69 357.763 1062.64 359.716L1094.46 391.536ZM1093 197L1093 388L1103 388L1103 197L1093 197Z" fill="black"/>
<rect x="1029" y="274" width="137" height="54" rx="5" fill="#22ACCA"/>
<path d="M1060.31 298.684H1063.39V299.914C1063.98 299.294 1064.49 298.875 1064.91 298.656C1065.35 298.428 1065.91 298.314 1066.59 298.314C1068.09 298.314 1069.28 298.971 1070.16 300.283C1071.12 298.971 1072.43 298.314 1074.08 298.314C1077.08 298.314 1078.58 300.133 1078.58 303.77V312H1075.49V304.604C1075.49 303.327 1075.33 302.425 1075.02 301.896C1074.7 301.359 1074.18 301.09 1073.45 301.09C1072.6 301.09 1071.98 301.409 1071.59 302.047C1071.21 302.685 1071.02 303.71 1071.02 305.123V312H1067.93V304.645C1067.93 302.275 1067.24 301.09 1065.88 301.09C1065.01 301.09 1064.38 301.413 1063.98 302.061C1063.58 302.708 1063.39 303.729 1063.39 305.123V312H1060.31V298.684ZM1081.83 305.246C1081.83 303.323 1082.52 301.687 1083.9 300.338C1085.27 298.989 1086.95 298.314 1088.93 298.314C1090.91 298.314 1092.6 298.993 1093.99 300.352C1095.35 301.71 1096.04 303.378 1096.04 305.355C1096.04 307.352 1095.35 309.024 1093.97 310.373C1092.59 311.713 1090.89 312.383 1088.87 312.383C1086.88 312.383 1085.2 311.699 1083.86 310.332C1082.51 308.983 1081.83 307.288 1081.83 305.246ZM1084.98 305.301C1084.98 306.632 1085.33 307.684 1086.04 308.459C1086.77 309.243 1087.73 309.635 1088.93 309.635C1090.13 309.635 1091.09 309.247 1091.81 308.473C1092.53 307.698 1092.89 306.663 1092.89 305.369C1092.89 304.075 1092.53 303.04 1091.81 302.266C1091.08 301.482 1090.12 301.09 1088.93 301.09C1087.75 301.09 1086.8 301.482 1086.07 302.266C1085.34 303.049 1084.98 304.061 1084.98 305.301ZM1109.12 288.908H1112.21V312H1109.12V310.605C1107.91 311.79 1106.54 312.383 1105.01 312.383C1103.18 312.383 1101.67 311.717 1100.47 310.387C1099.27 309.029 1098.68 307.333 1098.68 305.301C1098.68 303.314 1099.27 301.655 1100.47 300.324C1101.65 298.984 1103.14 298.314 1104.94 298.314C1106.5 298.314 1107.89 298.952 1109.12 300.229V288.908ZM1101.82 305.301C1101.82 306.577 1102.16 307.616 1102.85 308.418C1103.55 309.229 1104.43 309.635 1105.5 309.635C1106.64 309.635 1107.56 309.243 1108.26 308.459C1108.96 307.648 1109.31 306.618 1109.31 305.369C1109.31 304.12 1108.96 303.09 1108.26 302.279C1107.56 301.486 1106.65 301.09 1105.53 301.09C1104.47 301.09 1103.58 301.491 1102.87 302.293C1102.17 303.104 1101.82 304.107 1101.82 305.301ZM1128.22 306.066H1118.68C1118.76 307.16 1119.12 308.031 1119.74 308.678C1120.37 309.316 1121.18 309.635 1122.16 309.635C1122.93 309.635 1123.56 309.452 1124.06 309.088C1124.56 308.723 1125.12 308.049 1125.75 307.064L1128.34 308.514C1127.94 309.197 1127.52 309.785 1127.07 310.277C1126.63 310.76 1126.15 311.161 1125.64 311.48C1125.13 311.79 1124.57 312.018 1123.98 312.164C1123.39 312.31 1122.75 312.383 1122.05 312.383C1120.07 312.383 1118.47 311.745 1117.27 310.469C1116.07 309.184 1115.46 307.479 1115.46 305.355C1115.46 303.25 1116.05 301.546 1117.21 300.242C1118.39 298.957 1119.95 298.314 1121.89 298.314C1123.85 298.314 1125.4 298.939 1126.54 300.188C1127.67 301.427 1128.23 303.145 1128.23 305.342L1128.22 306.066ZM1125.06 303.551C1124.63 301.91 1123.6 301.09 1121.96 301.09C1121.59 301.09 1121.23 301.149 1120.91 301.268C1120.58 301.377 1120.28 301.541 1120 301.76C1119.74 301.969 1119.51 302.225 1119.32 302.525C1119.13 302.826 1118.98 303.168 1118.88 303.551H1125.06ZM1134.67 288.908V312H1131.6V288.908H1134.67Z" fill="white"/>
<path d="M1094.46 726.536C1096.42 728.488 1099.58 728.488 1101.54 726.536L1133.36 694.716C1135.31 692.763 1135.31 689.597 1133.36 687.645C1131.4 685.692 1128.24 685.692 1126.28 687.645L1098 715.929L1069.72 687.645C1067.76 685.692 1064.6 685.692 1062.64 687.645C1060.69 689.597 1060.69 692.763 1062.64 694.716L1094.46 726.536ZM1093 532L1093 723L1103 723L1103 532L1093 532Z" fill="black"/>
<rect x="1029" y="609" width="137" height="54" rx="5" fill="#22ACCA"/>
<path d="M1060.31 633.684H1063.39V634.914C1063.98 634.294 1064.49 633.875 1064.91 633.656C1065.35 633.428 1065.91 633.314 1066.59 633.314C1068.09 633.314 1069.28 633.971 1070.16 635.283C1071.12 633.971 1072.43 633.314 1074.08 633.314C1077.08 633.314 1078.58 635.133 1078.58 638.77V647H1075.49V639.604C1075.49 638.327 1075.33 637.425 1075.02 636.896C1074.7 636.359 1074.18 636.09 1073.45 636.09C1072.6 636.09 1071.98 636.409 1071.59 637.047C1071.21 637.685 1071.02 638.71 1071.02 640.123V647H1067.93V639.645C1067.93 637.275 1067.24 636.09 1065.88 636.09C1065.01 636.09 1064.38 636.413 1063.98 637.061C1063.58 637.708 1063.39 638.729 1063.39 640.123V647H1060.31V633.684ZM1081.83 640.246C1081.83 638.323 1082.52 636.687 1083.9 635.338C1085.27 633.989 1086.95 633.314 1088.93 633.314C1090.91 633.314 1092.6 633.993 1093.99 635.352C1095.35 636.71 1096.04 638.378 1096.04 640.355C1096.04 642.352 1095.35 644.024 1093.97 645.373C1092.59 646.713 1090.89 647.383 1088.87 647.383C1086.88 647.383 1085.2 646.699 1083.86 645.332C1082.51 643.983 1081.83 642.288 1081.83 640.246ZM1084.98 640.301C1084.98 641.632 1085.33 642.684 1086.04 643.459C1086.77 644.243 1087.73 644.635 1088.93 644.635C1090.13 644.635 1091.09 644.247 1091.81 643.473C1092.53 642.698 1092.89 641.663 1092.89 640.369C1092.89 639.075 1092.53 638.04 1091.81 637.266C1091.08 636.482 1090.12 636.09 1088.93 636.09C1087.75 636.09 1086.8 636.482 1086.07 637.266C1085.34 638.049 1084.98 639.061 1084.98 640.301ZM1109.12 623.908H1112.21V647H1109.12V645.605C1107.91 646.79 1106.54 647.383 1105.01 647.383C1103.18 647.383 1101.67 646.717 1100.47 645.387C1099.27 644.029 1098.68 642.333 1098.68 640.301C1098.68 638.314 1099.27 636.655 1100.47 635.324C1101.65 633.984 1103.14 633.314 1104.94 633.314C1106.5 633.314 1107.89 633.952 1109.12 635.229V623.908ZM1101.82 640.301C1101.82 641.577 1102.16 642.616 1102.85 643.418C1103.55 644.229 1104.43 644.635 1105.5 644.635C1106.64 644.635 1107.56 644.243 1108.26 643.459C1108.96 642.648 1109.31 641.618 1109.31 640.369C1109.31 639.12 1108.96 638.09 1108.26 637.279C1107.56 636.486 1106.65 636.09 1105.53 636.09C1104.47 636.09 1103.58 636.491 1102.87 637.293C1102.17 638.104 1101.82 639.107 1101.82 640.301ZM1128.22 641.066H1118.68C1118.76 642.16 1119.12 643.031 1119.74 643.678C1120.37 644.316 1121.18 644.635 1122.16 644.635C1122.93 644.635 1123.56 644.452 1124.06 644.088C1124.56 643.723 1125.12 643.049 1125.75 642.064L1128.34 643.514C1127.94 644.197 1127.52 644.785 1127.07 645.277C1126.63 645.76 1126.15 646.161 1125.64 646.48C1125.13 646.79 1124.57 647.018 1123.98 647.164C1123.39 647.31 1122.75 647.383 1122.05 647.383C1120.07 647.383 1118.47 646.745 1117.27 645.469C1116.07 644.184 1115.46 642.479 1115.46 640.355C1115.46 638.25 1116.05 636.546 1117.21 635.242C1118.39 633.957 1119.95 633.314 1121.89 633.314C1123.85 633.314 1125.4 633.939 1126.54 635.188C1127.67 636.427 1128.23 638.145 1128.23 640.342L1128.22 641.066ZM1125.06 638.551C1124.63 636.91 1123.6 636.09 1121.96 636.09C1121.59 636.09 1121.23 636.149 1120.91 636.268C1120.58 636.377 1120.28 636.541 1120 636.76C1119.74 636.969 1119.51 637.225 1119.32 637.525C1119.13 637.826 1118.98 638.168 1118.88 638.551H1125.06ZM1134.67 623.908V647H1131.6V623.908H1134.67Z" fill="white"/>
<path d="M934.536 528.464C932.583 526.512 929.417 526.512 927.464 528.464L895.645 560.284C893.692 562.237 893.692 565.403 895.645 567.355C897.597 569.308 900.763 569.308 902.716 567.355L931 539.071L959.284 567.355C961.237 569.308 964.403 569.308 966.355 567.355C968.308 565.403 968.308 562.237 966.355 560.284L934.536 528.464ZM936 723L936 532L926 532L926 723L936 723Z" fill="black"/>
<rect x="862" y="609" width="137" height="54" rx="5" fill="#CA2268"/>
<path d="M906.369 623.908H909.445V634.791C910.539 633.807 911.747 633.314 913.068 633.314C914.572 633.314 915.775 633.802 916.678 634.777C917.443 635.625 917.826 636.979 917.826 638.838V647H914.75V639.125C914.75 638.059 914.559 637.288 914.176 636.814C913.802 636.331 913.196 636.09 912.357 636.09C911.282 636.09 910.525 636.423 910.088 637.088C909.66 637.762 909.445 638.92 909.445 640.561V647H906.369V623.908ZM924.908 636.555V647H921.832V636.555H920.52V633.684H921.832V628.803H924.908V633.684H927.301V636.555H924.908ZM929.393 633.684H932.469V634.914C933.061 634.294 933.567 633.875 933.986 633.656C934.433 633.428 934.993 633.314 935.668 633.314C937.172 633.314 938.361 633.971 939.236 635.283C940.202 633.971 941.51 633.314 943.16 633.314C946.159 633.314 947.658 635.133 947.658 638.77V647H944.568V639.604C944.568 638.327 944.413 637.425 944.104 636.896C943.785 636.359 943.26 636.09 942.531 636.09C941.684 636.09 941.064 636.409 940.672 637.047C940.289 637.685 940.098 638.71 940.098 640.123V647H937.008V639.645C937.008 637.275 936.324 636.09 934.957 636.09C934.091 636.09 933.458 636.413 933.057 637.061C932.665 637.708 932.469 638.729 932.469 640.123V647H929.393V633.684ZM954.617 623.908V647H951.541V623.908H954.617Z" fill="white"/>
<path d="M1196.44 314V291.455L1211.83 307.561V292.891H1215.02V315.285L1199.62 299.221V314H1196.44ZM1231.74 295.885H1223.28V300.957H1231.49V303.951H1223.28V311.006H1231.74V314H1220.09V292.891H1231.74V295.885ZM1236.96 292.891L1242.46 307L1248.2 291.865L1253.7 307L1259.54 292.891H1262.99L1253.56 315.34L1248.13 300.383L1242.47 315.354L1233.5 292.891H1236.96Z" fill="#FF4040"/>
</svg>
