<svg width="1543" height="969" viewBox="0 0 1543 969" fill="none" xmlns="http://www.w3.org/2000/svg">
<rect width="1543" height="969" fill="white"/>
<rect x="120" y="411" width="273" height="106" fill="#C4C4C4"/>
<path d="M207.965 475V453.891H211.137C212.549 453.891 213.675 454 214.514 454.219C215.361 454.438 216.077 454.807 216.66 455.326C217.253 455.864 217.722 456.534 218.068 457.336C218.424 458.147 218.602 458.967 218.602 459.797C218.602 461.31 218.023 462.59 216.865 463.639C217.986 464.021 218.87 464.691 219.518 465.648C220.174 466.596 220.502 467.699 220.502 468.957C220.502 470.607 219.919 472.001 218.752 473.141C218.05 473.842 217.262 474.33 216.387 474.604C215.43 474.868 214.231 475 212.791 475H207.965ZM211.15 462.955H212.148C213.333 462.955 214.199 462.695 214.746 462.176C215.302 461.647 215.58 460.872 215.58 459.852C215.58 458.858 215.298 458.106 214.732 457.596C214.167 457.076 213.347 456.816 212.271 456.816H211.15V462.955ZM211.15 472.006H213.119C214.559 472.006 215.617 471.723 216.291 471.158C217.002 470.548 217.357 469.773 217.357 468.834C217.357 467.923 217.016 467.157 216.332 466.537C215.667 465.926 214.477 465.621 212.764 465.621H211.15V472.006ZM223.947 461.684H227.023V462.873C227.589 462.281 228.09 461.875 228.527 461.656C228.974 461.428 229.503 461.314 230.113 461.314C230.924 461.314 231.772 461.579 232.656 462.107L231.248 464.924C230.665 464.505 230.095 464.295 229.539 464.295C227.862 464.295 227.023 465.562 227.023 468.096V475H223.947V461.684ZM233.545 468.246C233.545 466.323 234.233 464.687 235.609 463.338C236.986 461.989 238.663 461.314 240.641 461.314C242.628 461.314 244.314 461.993 245.699 463.352C247.066 464.71 247.75 466.378 247.75 468.355C247.75 470.352 247.062 472.024 245.686 473.373C244.3 474.713 242.6 475.383 240.586 475.383C238.59 475.383 236.917 474.699 235.568 473.332C234.219 471.983 233.545 470.288 233.545 468.246ZM236.689 468.301C236.689 469.632 237.045 470.684 237.756 471.459C238.485 472.243 239.447 472.635 240.641 472.635C241.844 472.635 242.805 472.247 243.525 471.473C244.245 470.698 244.605 469.663 244.605 468.369C244.605 467.075 244.245 466.04 243.525 465.266C242.796 464.482 241.835 464.09 240.641 464.09C239.465 464.09 238.512 464.482 237.783 465.266C237.054 466.049 236.689 467.061 236.689 468.301ZM252.139 461.684L255.625 469.285L259.385 460.467L263.172 469.285L266.617 461.684H270.062L263.09 475.998L259.385 467.426L255.639 475.998L248.68 461.684H252.139ZM279.893 463.953L277.35 465.307C276.949 464.486 276.452 464.076 275.859 464.076C275.577 464.076 275.335 464.172 275.135 464.363C274.934 464.546 274.834 464.783 274.834 465.074C274.834 465.585 275.426 466.09 276.611 466.592C278.243 467.294 279.341 467.941 279.906 468.533C280.471 469.126 280.754 469.923 280.754 470.926C280.754 472.211 280.28 473.286 279.332 474.152C278.411 474.973 277.299 475.383 275.996 475.383C273.763 475.383 272.182 474.294 271.252 472.115L273.877 470.898C274.242 471.536 274.52 471.942 274.711 472.115C275.085 472.462 275.531 472.635 276.051 472.635C277.09 472.635 277.609 472.161 277.609 471.213C277.609 470.666 277.208 470.156 276.406 469.682C276.096 469.527 275.786 469.376 275.477 469.23C275.167 469.085 274.852 468.934 274.533 468.779C273.64 468.342 273.011 467.904 272.646 467.467C272.182 466.911 271.949 466.195 271.949 465.32C271.949 464.163 272.346 463.206 273.139 462.449C273.95 461.693 274.934 461.314 276.092 461.314C277.796 461.314 279.063 462.194 279.893 463.953ZM295.656 469.066H286.113C286.195 470.16 286.551 471.031 287.18 471.678C287.809 472.316 288.615 472.635 289.6 472.635C290.365 472.635 290.999 472.452 291.5 472.088C291.992 471.723 292.553 471.049 293.182 470.064L295.779 471.514C295.378 472.197 294.954 472.785 294.508 473.277C294.061 473.76 293.583 474.161 293.072 474.48C292.562 474.79 292.01 475.018 291.418 475.164C290.826 475.31 290.183 475.383 289.49 475.383C287.503 475.383 285.908 474.745 284.705 473.469C283.502 472.184 282.9 470.479 282.9 468.355C282.9 466.25 283.484 464.546 284.65 463.242C285.826 461.957 287.385 461.314 289.326 461.314C291.286 461.314 292.835 461.939 293.975 463.188C295.105 464.427 295.67 466.145 295.67 468.342L295.656 469.066ZM292.498 466.551C292.07 464.91 291.035 464.09 289.395 464.09C289.021 464.09 288.67 464.149 288.342 464.268C288.014 464.377 287.713 464.541 287.439 464.76C287.175 464.969 286.947 465.225 286.756 465.525C286.564 465.826 286.419 466.168 286.318 466.551H292.498ZM299.033 461.684H302.109V462.873C302.674 462.281 303.176 461.875 303.613 461.656C304.06 461.428 304.589 461.314 305.199 461.314C306.01 461.314 306.858 461.579 307.742 462.107L306.334 464.924C305.751 464.505 305.181 464.295 304.625 464.295C302.948 464.295 302.109 465.562 302.109 468.096V475H299.033V461.684Z" fill="black"/>
<rect x="788" y="411" width="422" height="106" fill="#8BDFC1"/>
<path d="M862.178 456.885H853.715V461.957H861.932V464.951H853.715V472.006H862.178V475H850.529V453.891H862.178V456.885ZM868.85 451.908V475H865.773V451.908H868.85ZM872.746 461.684H875.822V462.914C876.415 462.294 876.921 461.875 877.34 461.656C877.786 461.428 878.347 461.314 879.021 461.314C880.525 461.314 881.715 461.971 882.59 463.283C883.556 461.971 884.864 461.314 886.514 461.314C889.512 461.314 891.012 463.133 891.012 466.77V475H887.922V467.604C887.922 466.327 887.767 465.425 887.457 464.896C887.138 464.359 886.614 464.09 885.885 464.09C885.037 464.09 884.417 464.409 884.025 465.047C883.643 465.685 883.451 466.71 883.451 468.123V475H880.361V467.645C880.361 465.275 879.678 464.09 878.311 464.09C877.445 464.09 876.811 464.413 876.41 465.061C876.018 465.708 875.822 466.729 875.822 468.123V475H872.746V461.684ZM911.273 466.004L917.809 475H913.912L907.883 466.359H907.309V475H904.123V453.891H907.855C910.645 453.891 912.659 454.415 913.898 455.463C915.266 456.63 915.949 458.17 915.949 460.084C915.949 461.579 915.521 462.864 914.664 463.939C913.807 465.015 912.677 465.703 911.273 466.004ZM907.309 463.584H908.32C911.337 463.584 912.846 462.431 912.846 460.125C912.846 457.965 911.378 456.885 908.443 456.885H907.309V463.584ZM923.045 461.684V469.326C923.045 471.532 923.915 472.635 925.656 472.635C927.397 472.635 928.268 471.532 928.268 469.326V461.684H931.344V469.395C931.344 470.461 931.212 471.382 930.947 472.156C930.692 472.849 930.25 473.473 929.621 474.029C928.582 474.932 927.26 475.383 925.656 475.383C924.061 475.383 922.744 474.932 921.705 474.029C921.067 473.473 920.616 472.849 920.352 472.156C920.096 471.536 919.969 470.616 919.969 469.395V461.684H923.045ZM935.227 461.684H938.316V462.914C939.392 461.848 940.604 461.314 941.953 461.314C943.503 461.314 944.71 461.802 945.576 462.777C946.324 463.607 946.697 464.96 946.697 466.838V475H943.607V467.562C943.607 466.25 943.425 465.343 943.061 464.842C942.705 464.331 942.058 464.076 941.119 464.076C940.098 464.076 939.374 464.413 938.945 465.088C938.526 465.753 938.316 466.915 938.316 468.574V475H935.227V461.684ZM953.766 464.555V475H950.689V464.555H949.377V461.684H950.689V456.803H953.766V461.684H956.158V464.555H953.766ZM961.326 461.684V475H958.25V461.684H961.326ZM957.785 456.146C957.785 455.609 957.981 455.144 958.373 454.752C958.765 454.36 959.234 454.164 959.781 454.164C960.337 454.164 960.811 454.36 961.203 454.752C961.595 455.135 961.791 455.604 961.791 456.16C961.791 456.716 961.595 457.19 961.203 457.582C960.82 457.974 960.351 458.17 959.795 458.17C959.239 458.17 958.765 457.974 958.373 457.582C957.981 457.19 957.785 456.712 957.785 456.146ZM965.223 461.684H968.299V462.914C968.891 462.294 969.397 461.875 969.816 461.656C970.263 461.428 970.824 461.314 971.498 461.314C973.002 461.314 974.191 461.971 975.066 463.283C976.033 461.971 977.34 461.314 978.99 461.314C981.989 461.314 983.488 463.133 983.488 466.77V475H980.398V467.604C980.398 466.327 980.243 465.425 979.934 464.896C979.615 464.359 979.09 464.09 978.361 464.09C977.514 464.09 976.894 464.409 976.502 465.047C976.119 465.685 975.928 466.71 975.928 468.123V475H972.838V467.645C972.838 465.275 972.154 464.09 970.787 464.09C969.921 464.09 969.288 464.413 968.887 465.061C968.495 465.708 968.299 466.729 968.299 468.123V475H965.223V461.684ZM999.498 469.066H989.955C990.037 470.16 990.393 471.031 991.021 471.678C991.65 472.316 992.457 472.635 993.441 472.635C994.207 472.635 994.84 472.452 995.342 472.088C995.834 471.723 996.395 471.049 997.023 470.064L999.621 471.514C999.22 472.197 998.796 472.785 998.35 473.277C997.903 473.76 997.424 474.161 996.914 474.48C996.404 474.79 995.852 475.018 995.26 475.164C994.667 475.31 994.025 475.383 993.332 475.383C991.345 475.383 989.75 474.745 988.547 473.469C987.344 472.184 986.742 470.479 986.742 468.355C986.742 466.25 987.326 464.546 988.492 463.242C989.668 461.957 991.227 461.314 993.168 461.314C995.128 461.314 996.677 461.939 997.816 463.188C998.947 464.427 999.512 466.145 999.512 468.342L999.498 469.066ZM996.34 466.551C995.911 464.91 994.877 464.09 993.236 464.09C992.863 464.09 992.512 464.149 992.184 464.268C991.855 464.377 991.555 464.541 991.281 464.76C991.017 464.969 990.789 465.225 990.598 465.525C990.406 465.826 990.26 466.168 990.16 466.551H996.34Z" fill="black"/>
<rect x="862" y="67" width="273" height="106" fill="#E4DC8C"/>
<path d="M956.869 109.891V122.605C956.869 124.419 957.165 125.745 957.758 126.584C958.642 127.796 959.886 128.402 961.49 128.402C963.104 128.402 964.352 127.796 965.236 126.584C965.829 125.773 966.125 124.447 966.125 122.605V109.891H969.311V123.48C969.311 125.704 968.618 127.536 967.232 128.977C965.674 130.581 963.76 131.383 961.49 131.383C959.221 131.383 957.311 130.581 955.762 128.977C954.376 127.536 953.684 125.704 953.684 123.48V109.891H956.869ZM977.09 138.246H974.014V117.684H977.09V119.133C978.302 117.921 979.678 117.314 981.219 117.314C983.051 117.314 984.559 117.989 985.744 119.338C986.947 120.678 987.549 122.368 987.549 124.41C987.549 126.406 986.952 128.07 985.758 129.4C984.573 130.722 983.078 131.383 981.273 131.383C979.715 131.383 978.32 130.758 977.09 129.51V138.246ZM984.404 124.424C984.404 123.148 984.058 122.109 983.365 121.307C982.663 120.495 981.779 120.09 980.713 120.09C979.583 120.09 978.667 120.482 977.965 121.266C977.263 122.049 976.912 123.079 976.912 124.355C976.912 125.604 977.263 126.634 977.965 127.445C978.658 128.238 979.569 128.635 980.699 128.635C981.766 128.635 982.645 128.234 983.338 127.432C984.049 126.63 984.404 125.627 984.404 124.424ZM1000.62 107.908H1003.71V131H1000.62V129.605C999.407 130.79 998.035 131.383 996.504 131.383C994.681 131.383 993.168 130.717 991.965 129.387C990.771 128.029 990.174 126.333 990.174 124.301C990.174 122.314 990.771 120.655 991.965 119.324C993.15 117.984 994.64 117.314 996.436 117.314C997.994 117.314 999.389 117.952 1000.62 119.229V107.908ZM993.318 124.301C993.318 125.577 993.66 126.616 994.344 127.418C995.046 128.229 995.93 128.635 996.996 128.635C998.135 128.635 999.056 128.243 999.758 127.459C1000.46 126.648 1000.81 125.618 1000.81 124.369C1000.81 123.12 1000.46 122.09 999.758 121.279C999.056 120.486 998.145 120.09 997.023 120.09C995.966 120.09 995.082 120.491 994.371 121.293C993.669 122.104 993.318 123.107 993.318 124.301ZM1017.41 117.684H1020.5V131H1017.41V129.605C1016.14 130.79 1014.78 131.383 1013.32 131.383C1011.48 131.383 1009.96 130.717 1008.75 129.387C1007.56 128.029 1006.96 126.333 1006.96 124.301C1006.96 122.305 1007.56 120.641 1008.75 119.311C1009.95 117.98 1011.44 117.314 1013.24 117.314C1014.79 117.314 1016.18 117.952 1017.41 119.229V117.684ZM1010.11 124.301C1010.11 125.577 1010.45 126.616 1011.13 127.418C1011.83 128.229 1012.72 128.635 1013.79 128.635C1014.92 128.635 1015.85 128.243 1016.55 127.459C1017.25 126.648 1017.6 125.618 1017.6 124.369C1017.6 123.12 1017.25 122.09 1016.55 121.279C1015.85 120.486 1014.93 120.09 1013.81 120.09C1012.76 120.09 1011.87 120.491 1011.16 121.293C1010.46 122.104 1010.11 123.107 1010.11 124.301ZM1027.55 120.555V131H1024.48V120.555H1023.16V117.684H1024.48V112.803H1027.55V117.684H1029.95V120.555H1027.55ZM1044.41 125.066H1034.87C1034.95 126.16 1035.3 127.031 1035.93 127.678C1036.56 128.316 1037.37 128.635 1038.35 128.635C1039.12 128.635 1039.75 128.452 1040.25 128.088C1040.75 127.723 1041.31 127.049 1041.94 126.064L1044.53 127.514C1044.13 128.197 1043.71 128.785 1043.26 129.277C1042.82 129.76 1042.34 130.161 1041.83 130.48C1041.32 130.79 1040.76 131.018 1040.17 131.164C1039.58 131.31 1038.94 131.383 1038.24 131.383C1036.26 131.383 1034.66 130.745 1033.46 129.469C1032.26 128.184 1031.65 126.479 1031.65 124.355C1031.65 122.25 1032.24 120.546 1033.4 119.242C1034.58 117.957 1036.14 117.314 1038.08 117.314C1040.04 117.314 1041.59 117.939 1042.73 119.188C1043.86 120.427 1044.42 122.145 1044.42 124.342L1044.41 125.066ZM1041.25 122.551C1040.82 120.91 1039.79 120.09 1038.15 120.09C1037.77 120.09 1037.42 120.149 1037.1 120.268C1036.77 120.377 1036.47 120.541 1036.19 120.76C1035.93 120.969 1035.7 121.225 1035.51 121.525C1035.32 121.826 1035.17 122.168 1035.07 122.551H1041.25Z" fill="black"/>
<rect x="862" y="738" width="273" height="106" fill="#E4DC8C"/>
<path d="M970.623 780.891L976.461 795.52L982.381 780.891H985.867L976.393 803.586L967.137 780.891H970.623ZM991.268 788.684V802H988.191V788.684H991.268ZM987.727 783.146C987.727 782.609 987.923 782.144 988.314 781.752C988.706 781.36 989.176 781.164 989.723 781.164C990.279 781.164 990.753 781.36 991.145 781.752C991.536 782.135 991.732 782.604 991.732 783.16C991.732 783.716 991.536 784.19 991.145 784.582C990.762 784.974 990.292 785.17 989.736 785.17C989.18 785.17 988.706 784.974 988.314 784.582C987.923 784.19 987.727 783.712 987.727 783.146ZM1007.29 796.066H997.748C997.83 797.16 998.186 798.031 998.814 798.678C999.443 799.316 1000.25 799.635 1001.23 799.635C1002 799.635 1002.63 799.452 1003.13 799.088C1003.63 798.723 1004.19 798.049 1004.82 797.064L1007.41 798.514C1007.01 799.197 1006.59 799.785 1006.14 800.277C1005.7 800.76 1005.22 801.161 1004.71 801.48C1004.2 801.79 1003.65 802.018 1003.05 802.164C1002.46 802.31 1001.82 802.383 1001.12 802.383C999.138 802.383 997.543 801.745 996.34 800.469C995.137 799.184 994.535 797.479 994.535 795.355C994.535 793.25 995.118 791.546 996.285 790.242C997.461 788.957 999.02 788.314 1000.96 788.314C1002.92 788.314 1004.47 788.939 1005.61 790.188C1006.74 791.427 1007.3 793.145 1007.3 795.342L1007.29 796.066ZM1004.13 793.551C1003.7 791.91 1002.67 791.09 1001.03 791.09C1000.66 791.09 1000.3 791.149 999.977 791.268C999.648 791.377 999.348 791.541 999.074 791.76C998.81 791.969 998.582 792.225 998.391 792.525C998.199 792.826 998.053 793.168 997.953 793.551H1004.13ZM1011.9 788.684L1015.38 796.285L1019.14 787.467L1022.93 796.285L1026.38 788.684H1029.82L1022.85 802.998L1019.14 794.426L1015.4 802.998L1008.44 788.684H1011.9Z" fill="black"/>
<rect x="1029" y="437" width="137" height="54" rx="5" fill="#22ACCA"/>
<path d="M1060.31 461.684H1063.39V462.914C1063.98 462.294 1064.49 461.875 1064.91 461.656C1065.35 461.428 1065.91 461.314 1066.59 461.314C1068.09 461.314 1069.28 461.971 1070.16 463.283C1071.12 461.971 1072.43 461.314 1074.08 461.314C1077.08 461.314 1078.58 463.133 1078.58 466.77V475H1075.49V467.604C1075.49 466.327 1075.33 465.425 1075.02 464.896C1074.7 464.359 1074.18 464.09 1073.45 464.09C1072.6 464.09 1071.98 464.409 1071.59 465.047C1071.21 465.685 1071.02 466.71 1071.02 468.123V475H1067.93V467.645C1067.93 465.275 1067.24 464.09 1065.88 464.09C1065.01 464.09 1064.38 464.413 1063.98 465.061C1063.58 465.708 1063.39 466.729 1063.39 468.123V475H1060.31V461.684ZM1081.83 468.246C1081.83 466.323 1082.52 464.687 1083.9 463.338C1085.27 461.989 1086.95 461.314 1088.93 461.314C1090.91 461.314 1092.6 461.993 1093.99 463.352C1095.35 464.71 1096.04 466.378 1096.04 468.355C1096.04 470.352 1095.35 472.024 1093.97 473.373C1092.59 474.713 1090.89 475.383 1088.87 475.383C1086.88 475.383 1085.2 474.699 1083.86 473.332C1082.51 471.983 1081.83 470.288 1081.83 468.246ZM1084.98 468.301C1084.98 469.632 1085.33 470.684 1086.04 471.459C1086.77 472.243 1087.73 472.635 1088.93 472.635C1090.13 472.635 1091.09 472.247 1091.81 471.473C1092.53 470.698 1092.89 469.663 1092.89 468.369C1092.89 467.075 1092.53 466.04 1091.81 465.266C1091.08 464.482 1090.12 464.09 1088.93 464.09C1087.75 464.09 1086.8 464.482 1086.07 465.266C1085.34 466.049 1084.98 467.061 1084.98 468.301ZM1109.12 451.908H1112.21V475H1109.12V473.605C1107.91 474.79 1106.54 475.383 1105.01 475.383C1103.18 475.383 1101.67 474.717 1100.47 473.387C1099.27 472.029 1098.68 470.333 1098.68 468.301C1098.68 466.314 1099.27 464.655 1100.47 463.324C1101.65 461.984 1103.14 461.314 1104.94 461.314C1106.5 461.314 1107.89 461.952 1109.12 463.229V451.908ZM1101.82 468.301C1101.82 469.577 1102.16 470.616 1102.85 471.418C1103.55 472.229 1104.43 472.635 1105.5 472.635C1106.64 472.635 1107.56 472.243 1108.26 471.459C1108.96 470.648 1109.31 469.618 1109.31 468.369C1109.31 467.12 1108.96 466.09 1108.26 465.279C1107.56 464.486 1106.65 464.09 1105.53 464.09C1104.47 464.09 1103.58 464.491 1102.87 465.293C1102.17 466.104 1101.82 467.107 1101.82 468.301ZM1128.22 469.066H1118.68C1118.76 470.16 1119.12 471.031 1119.74 471.678C1120.37 472.316 1121.18 472.635 1122.16 472.635C1122.93 472.635 1123.56 472.452 1124.06 472.088C1124.56 471.723 1125.12 471.049 1125.75 470.064L1128.34 471.514C1127.94 472.197 1127.52 472.785 1127.07 473.277C1126.63 473.76 1126.15 474.161 1125.64 474.48C1125.13 474.79 1124.57 475.018 1123.98 475.164C1123.39 475.31 1122.75 475.383 1122.05 475.383C1120.07 475.383 1118.47 474.745 1117.27 473.469C1116.07 472.184 1115.46 470.479 1115.46 468.355C1115.46 466.25 1116.05 464.546 1117.21 463.242C1118.39 461.957 1119.95 461.314 1121.89 461.314C1123.85 461.314 1125.4 461.939 1126.54 463.188C1127.67 464.427 1128.23 466.145 1128.23 468.342L1128.22 469.066ZM1125.06 466.551C1124.63 464.91 1123.6 464.09 1121.96 464.09C1121.59 464.09 1121.23 464.149 1120.91 464.268C1120.58 464.377 1120.28 464.541 1120 464.76C1119.74 464.969 1119.51 465.225 1119.32 465.525C1119.13 465.826 1118.98 466.168 1118.88 466.551H1125.06ZM1134.67 451.908V475H1131.6V451.908H1134.67Z" fill="white"/>
</svg>
